<?xml version="1.0" standalone="no"?>
<!DOCTYPE svg PUBLIC "-//W3C//DTD SVG 1.1//EN" "http://www.w3.org/Graphics/SVG/1.1/DTD/svg11.dtd" >
<svg>
<metadata>
Created by FontForge 20120731 at Thu Jan 24 00:11:13 2019
 By www-data
v1.2, Friday13, (c) 1999 Thomas W.Otto, Norfok Inc.
</metadata>
<defs>
<font id="Friday13" horiz-adv-x="500" >
  <font-face 
    font-family="Friday13"
    font-weight="400"
    font-stretch="normal"
    units-per-em="1000"
    panose-1="2 0 0 0 0 0 0 0 0 0"
    ascent="800"
    descent="-200"
    x-height="696"
    cap-height="817.5"
    bbox="-79 -216 1425.25 890.133"
    underline-thickness="50"
    underline-position="-75"
    unicode-range="U+0020-00DF"
  />
<missing-glyph 
 />
    <glyph glyph-name=".notdef" 
 />
    <glyph glyph-name=".null" horiz-adv-x="0" 
 />
    <glyph glyph-name="nonmarkingreturn" 
 />
    <glyph glyph-name="space" unicode=" " horiz-adv-x="201" 
 />
    <glyph glyph-name="space" unicode="&#xa0;" horiz-adv-x="201" 
 />
    <glyph glyph-name="two" unicode="2" horiz-adv-x="601" 
d="M0 132q0 15 9.5 29.5t22.5 27t27 24.5t24 23l26 23q4 16 23.5 32.5t42 32.5t41 29.5t19.5 23.5l70 71q1 12 13 27.5t26.5 30.5t26 26.5t11.5 15.5h-4q0 4 1 10t6 8q-8 5 -15 14.5t-2 20.5q-8 12 -20.5 23.5t-28.5 11.5q-6 0 -19 -7.5t-25 -17.5t-19.5 -19.5t-4.5 -13.5
l-22 -24q-14 -2 -48.5 2.5t-102.5 21.5q-7 2 -7.5 8t2 13.5t6.5 16t7 15.5q13 31 28.5 59.5t36.5 49.5t48.5 33.5t64.5 12.5h8q6 0 12.5 -0.5t12.5 -0.5h8q7 -6 18.5 -6.5t19.5 0.5l17 2q4 1 11.5 -3.5t10.5 -6.5q1 0 5 -3t9 -7t9 -7t6 -4q8 -6 20 -12.5t24.5 -13.5
t23 -14.5t15.5 -15.5q1 -2 8.5 -14.5t17 -28.5t11.5 -21q11 -23 19 -49.5t8 -52.5q0 -18 -9 -28.5t-20 -28.5q-3 -5 -10 -19t-7 -16q-1 -2 0 -9t0 -9q-6 -11 -25.5 -29.5t-41 -39t-38 -38.5t-16.5 -28q-2 1 -17 -10t-32 -26t-31 -29t-14 -18l-4 -3.5t-8.5 -7.5t-8 -7
l-3.5 -3q11 -3 26.5 -2t32.5 3.5t32.5 4.5t26.5 2q5 0 20 0.5t20 0.5q11 11 21 12t24 1q4 0 12 2.5t16.5 3t16 -3t10.5 -15.5q7 -30 16.5 -49l15.5 -31t7 -19t-8 -13q-7 -5 -26.5 -8t-41 -7t-40 -9.5t-23.5 -16.5q0 6 -6 6q-21 0 -40 -4.5t-37 -9.5t-37 -9.5t-41 -4.5
q-14 0 -26.5 -3.5t-26.5 -3.5q-9 0 -17 2t-15.5 4.5t-15 3t-16.5 -2.5q-22 -8 -40.5 -11t-26.5 2q-6 5 -20 23.5t-28.5 40t-26 40.5t-11.5 24z" />
    <glyph glyph-name="three" unicode="3" horiz-adv-x="531" 
d="M2 193q0 14 3 26.5t11 22.5l42 27q8 -5 14 -5q11 0 24.5 -3.5t27.5 -25.5q35 -29 56.5 -47.5t39.5 -19.5q12 -1 30.5 8t36 26.5t29.5 42.5t12 56q0 11 -0.5 26t-4 28.5t-12 22.5t-24.5 9q-12 0 -24 -4.5t-23.5 -10.5t-23 -10.5t-24.5 -4.5q-2 0 -9 0.5t-9 0.5q-4 3 -11 8
t-14.5 10.5t-14.5 11t-10 9.5t-11.5 9t-15.5 10t-10 11.5t5 15.5l135 99q29 22 51.5 45t22.5 52q0 20 -6.5 27.5t-25.5 7.5q-13 0 -26.5 -4.5t-25 -11.5t-20.5 -15t-13 -15q-4 -6 -9.5 -4.5t-12.5 6.5t-14.5 11t-16.5 8q-26 6 -31.5 12t-0.5 15q5 8 9.5 22t14.5 28
q8 11 19 20.5t18 16.5q25 26 36 35t22 9q16 -4 20 -4.5t12 -0.5q20 -1 32 -1.5t9 -0.5q25 0 41.5 -9.5t23.5 -32.5q2 -6 11 -12t20.5 -12.5t22 -14t15.5 -17.5q16 -33 25 -71t13 -76q1 -14 -4.5 -28.5t-14.5 -28t-19 -25.5t-17 -21q2 -2 9 -9.5t9 -9.5q23 -20 37 -39.5
t22 -41.5t11 -48t3 -59q0 -50 -15 -91.5t-41 -71.5t-61.5 -48t-75.5 -21q-6 0 -18 -2t-27.5 -4.5t-32 -4.5t-30.5 -2q-12 0 -20 1t-16 3.5t-18.5 6t-27.5 8.5q-41 11 -59.5 46t-27.5 83q0 1 -4 6.5t-9.5 12.5t-9.5 13.5t-4 8.5v4z" />
    <glyph glyph-name="five" unicode="5" horiz-adv-x="742" 
d="M-73 -36q0 7 1 14.5t10 8.5h65h65q9 0 23 1t27.5 2.5t23.5 3t11 2.5l8 8q0 2 1 21t1 36v19q0 117 -10.5 232.5t-10.5 232.5v9q0 8 0.5 16t0.5 15v10q6 22 21 26.5t30 4.5q5 0 10 0.5t10 1.5q8 2 6.5 17t-3.5 45l-137 -6q0 13 5 32t21 25q19 0 59.5 0.5t91.5 1.5t107 2
t107 2t92 1.5t60 0.5h22q8 0 19 1.5t18 -3.5q12 -8 16.5 -19.5t6.5 -27.5q-4 -2 -2.5 -6.5t1.5 -7.5t-5 -4.5t-22 2.5q-12 -1 -34 -2.5t-37.5 -3t-17.5 -1.5l6 -27l-197 -464q-3 -3 -7 -4.5t-9 -6t-10 -14.5t-10 -29q-6 -20 -15.5 -41.5t-18.5 -39.5t-15.5 -32t-6.5 -19h148
q7 0 11 -4t6 -10t2.5 -12t0.5 -10q0 -2 -0.5 -6.5t-0.5 -6.5q-14 -1 -44 -2t-68.5 -2t-80.5 -2t-80 -1.5t-68.5 -1t-44.5 -0.5h-73h-75q-9 2 -10 9.5t-1 12.5zM302 286l10 -27q9 6 16.5 15t13.5 19.5t10 20.5t7 18q3 6 11 31.5t17 54.5t17 54.5t11 31.5q3 9 12 31t19.5 47
t20.5 46.5t14 30.5v14q-14 0 -30 -0.5t-30.5 0.5t-24 4.5t-9.5 11.5h-7t-17.5 -0.5t-21.5 -1t-19 -0.5q-2 0 -9.5 1.5t-16 3t-16.5 1.5t-12 -4q1 -10 6.5 -12.5t11.5 -6t11 -11.5t5 -28v-345z" />
    <glyph glyph-name="at" unicode="@" horiz-adv-x="511" 
d="M314 592v-87q0 -14 13 -18t24 -4h13q4 0 15.5 0.5t14.5 1.5q15 25 23.5 52t19.5 53q-1 2 -1 3q0 2 -1 4q-2 10 3.5 16t13.5 8q0 2 2 4q3 6 10 8.5t13.5 4t12 4t5.5 8.5t-3.5 9.5t-7.5 7t-7.5 7.5t-3.5 10q0 2 0.5 6t0.5 5l20 70v5q0 2 3 8t-1 4q5 3 5.5 7.5t-2 9
t-6.5 7.5t-8 3q-3 -1 -11.5 -0.5t-10.5 -1.5q-11 7 -19.5 8.5t-19.5 1.5q-13 0 -22 -4t-17 -9q5 -31 -2.5 -58.5t-21.5 -56.5l-19 3q0 9 4 21.5t7.5 25.5t5.5 25.5t-1 23.5q-2 -1 -8 4.5t-8 5.5q-6 0 -7.5 7.5t-5.5 11.5q-11 -3 -18.5 -7t-18.5 2q-26 -6 -39 -21t-20.5 -36
t-13 -44.5t-15.5 -45.5q-1 -2 -5 -8t-9.5 -13t-10 -12.5t-5.5 -6.5v-10q1 -2 5.5 -10t4.5 -10t-1.5 -9.5t-3.5 -15.5t-3.5 -15.5t-1.5 -9.5v-11q0 -26 16 -35q20 12 43 0q12 6 19 18.5t11.5 26.5t10 26.5t14.5 19.5q5 3 12 2.5t14 -0.5zM13 524q0 -9 5.5 -13.5t13.5 -6.5
t17 -2.5t16 -0.5t10 11t18 21q2 4 13 1.5t16 -1.5q5 5 7.5 11.5t4.5 10.5l30 178q17 -1 26 -2t14 5q8 8 10.5 24.5t2.5 30.5q0 23 -13 29t-31 8q-8 0 -16.5 -1.5t-18.5 1.5q-10 -4 -22.5 -2t-22.5 2q-32 -2 -59 -3.5t-45 -19.5q0 -5 5.5 -8.5t3.5 -8.5q-1 -10 -10.5 -18
t-14.5 -13q1 -17 13.5 -21t27.5 -5t27.5 -4t12.5 -17v-5l-40 -170q0 -1 -0.5 -5t-0.5 -6z" />
    <glyph glyph-name="A" unicode="A" horiz-adv-x="382" 
d="M184 207q2 -12 3 -24t1 -23q0 -35 -3.5 -69t-0.5 -71q0 -6 5 -9.5t12.5 -6t16 -3.5t15.5 -1h16h25q9 14 13 30.5t14 33.5q3 6 7 26.5t7.5 45.5t5.5 51t1 43l62 290q0 2 1 16.5t0 22.5q-3 24 -5.5 52.5t-8 57t-16 55t-28.5 46.5q-13 2 -16.5 5t-4.5 6.5t-1.5 8.5t-6.5 10
q-25 0 -44 -13.5t-30 -36.5q-5 -9 -14 -28t-19.5 -43t-22.5 -50.5t-22.5 -50t-19 -42t-12.5 -26.5q-6 -14 -15 -30.5t-12 -31.5q-2 -10 1.5 -18.5t5.5 -19.5l-110 -220q1 -5 5 -19.5t3 -20.5q0 -1 -3 -7t-6 -13t-6 -13t-3 -7q0 -14 9.5 -21.5t20.5 -20.5q5 -6 15 -1t15 2
q17 -11 27 2t19 36t19.5 49t28.5 40q10 7 24 9t32 2zM234 480v-5q0 -7 -1 -23.5t-4 -37t-8 -40t-13 -32.5q-6 -11 -14.5 -8t-19.5 3l7 48l4.5 10t11 23.5t14 28t13.5 23.5q1 2 4.5 5.5t5.5 4.5z" />
    <glyph glyph-name="B" unicode="B" horiz-adv-x="537" 
d="M0 8q0 12 2 21t5 17t6.5 17.5t6.5 22.5q5 23 10.5 48.5t10.5 49.5q-2 1 -4.5 5t-0.5 6q0 2 5 13t5 13q6 17 5.5 34.5t4.5 36.5q5 18 13.5 51.5t16.5 68t15 63t9 36.5q4 12 9.5 33.5t10 45.5t7.5 46t3 34h-120l-5.5 3.5t-8.5 5.5q-6 12 -3 23t3 22q0 6 -6 14q8 6 17.5 8
t20 3.5t20 4t17.5 8.5v-5q2 1 5.5 3t5.5 2q23 10 54.5 17.5t65 12.5t65 7.5t54.5 2.5q7 0 17 -8t13 -16h50q1 -6 5.5 -8.5t10 -4t11 -2.5t9.5 -3q45 -17 62 -55t17 -89q0 -50 -8 -79.5t-23 -51.5t-37.5 -43t-51.5 -54q4 -6 10 -9.5t12 -7.5t11 -11.5t8 -20.5q7 -23 11 -51.5
t4 -42.5q0 -3 -0.5 -7t-0.5 -5t-5 -9.5t-5 -11.5v-7v-13v-13v-7q0 -1 -2.5 -5.5t-5 -9.5l-5 -10t-2.5 -6v-5q-8 -12 -28.5 -34.5t-45 -45t-48 -39.5t-37.5 -17q-28 -5 -60.5 -4t-66.5 5l-3.5 2t-5.5 3l-2 3t-3 3h-2q-4 0 -12.5 -4.5t-17 -10t-15.5 -11.5t-8 -9q-1 -1 2 -5.5
l3 -4.5q-1 -2 -6 -5.5t-5 -5.5q-2 -6 -2 -10q-13 0 -24.5 -5.5t-25.5 -5.5q-11 0 -16 3t-7 9t-1.5 13.5t0.5 16.5zM235 306q-3 -1 -10 -20.5t-14 -43.5t-12 -46.5t-5 -29.5q0 -2 0.5 -7.5t0.5 -7.5q12 7 31 18.5t36.5 25.5t30.5 30.5t13 34.5q0 26 -12.5 36.5t-36.5 10.5
q-3 0 -11.5 -0.5t-10.5 -0.5zM60 282q-2 2 -2 -2t2 -2q10 2 0 4zM385 610l-11 16q-3 4 -4 10.5t-1.5 12t-2 9.5t-5.5 4h-56q-4 0 -12 -22t-16 -50t-14 -53t-6 -31q6 0 23.5 11.5t36 26t34.5 28.5t19 19v4v10t0.5 8.5t3.5 2.5z" />
    <glyph glyph-name="C" unicode="C" horiz-adv-x="550" 
d="M9 349l-9 13q-1 19 0 31t3 27q9 17 13 37.5t2 34.5l29 69q0 1 4 7t8.5 13t9 13.5t5.5 8.5q5 7 20 16.5t21 17.5l9 12t12.5 17t13 17t9.5 11q10 11 24 16.5t28 16.5q18 15 31.5 27t27 20.5t29.5 14.5t40 9q23 4 38.5 8.5t40.5 4.5q8 0 14.5 -8t11.5 -19.5t7.5 -23
t2.5 -18.5q0 -21 -18.5 -33.5t-42.5 -22t-48 -18.5t-36 -24v-6q0 -1 -2.5 -7t-6 -12.5t-6.5 -12.5t-4 -7q-2 -5 -7 -6t-11 -2t-13.5 -4.5t-15.5 -13.5q-10 -13 -22 -31.5t-23 -37t-19 -32.5t-11 -18q-4 -6 0.5 -28.5t12 -52t15.5 -60.5t12 -53q3 -15 14 -26.5t25 -20
t28.5 -15t25.5 -11.5q6 -3 10.5 -8t9 -9.5t10.5 -7.5t16 -3q1 1 0.5 6t0.5 5q11 -2 37.5 -13t53.5 -25.5t48 -28.5t21 -22t-2.5 -13.5t-2.5 -12.5q0 -5 5 -5q6 0 6 -5q0 -11 -5.5 -19t-13.5 -14t-17.5 -10t-18.5 -6h-9q-6 0 -13 -0.5t-14 -0.5h-9q-54 0 -97 10.5t-88 39.5
l-18 13.5t-30 22t-30 22l-18 13.5q-30 22 -50 48t-34 56t-23 62.5t-17 66.5z" />
    <glyph glyph-name="D" unicode="D" horiz-adv-x="523" 
d="M10 100q0 -4 -2 -16.5t-4.5 -26.5t-4.5 -25l-2 -11l30 -20h170l4 1t9 2.5t9.5 3.5t7.5 3q26 10 58.5 22t64.5 28t59.5 38t44.5 52q11 20 23.5 42.5t23 46.5t18 49.5t8.5 51.5q2 72 -17 142.5t-61 130.5q-10 14 -26 23t-27 21q-6 6 -8.5 10t-4 7.5t-4 7.5t-8.5 9
q-7 5 -18.5 15.5t-22.5 22.5q-7 8 -18 13t-19 10q-29 16 -63.5 23t-88.5 12q-8 1 -12 -5.5t-5 -16.5t-0.5 -20.5t0.5 -17.5q0 -6 6.5 -11t16.5 -9t20 -7.5t18 -6.5q5 -2 -1.5 -13t-6.5 -20q-3 -7 -10 -25.5t-15 -39.5l-15 -39q-4 -10 -6 -16t-4 -10t-4.5 -12t-6.5 -22
q-10 -32 -25.5 -83t-32 -105t-31 -102.5t-21.5 -74.5zM157 191q19 46 34.5 90t29.5 87t27.5 86t28.5 87q2 4 5.5 11.5t4.5 8.5l1.5 0.5t2.5 0.5q2 0 4 -0.5l2 -0.5q4 -2 11.5 -5.5t8.5 -4.5l68 -135l-58 -185q-5 -15 -26 -28t-47.5 -23t-53.5 -16t-43 -6v33z" />
    <glyph glyph-name="E" unicode="E" horiz-adv-x="499" 
d="M0 49v5q9 3 14.5 9t4.5 10l-7 21q2 15 6 46.5t9.5 71t12 83t12 83t10.5 70.5t8 46l5 20t9.5 35t10 35t5.5 20q2 9 10 34t15 51.5t10.5 46.5t-2.5 20q-1 0 -5 2t-7.5 4.5t-5.5 6t1 6.5q9 9 44.5 14.5t77 9t77.5 4.5t47 1h26q20 0 43 -4.5t35 -21.5q12 -16 22 -22t16 -16
q17 -23 17 -51q0 -2 -0.5 -3.5l-0.5 -1.5q-2 -3 -6 -8.5t-8.5 -12t-9 -12t-7.5 -7.5q-6 -1 -13 1t-13.5 3t-12.5 0.5t-9 -6.5q-3 -5 -23 -8.5t-47 -6t-56.5 -4.5t-50.5 -3q-2 -6 -7.5 -19t-12.5 -30t-13.5 -36t-10.5 -36v-5q1 -2 4.5 -5.5t5.5 -4.5q14 0 33.5 -0.5t39.5 -3
t39.5 -6t33.5 -9.5q6 -3 7.5 -9.5t1.5 -14.5q0 -7 0.5 -14.5t4.5 -12.5q10 -12 16.5 -18.5t17.5 -19.5q3 -3 -6 -8.5t-21 -11t-23 -9t-14 -3.5q-9 -2 -33 -5.5t-51 -7.5t-51 -7t-34 -4l-14 -24l-24 -141q1 -11 18.5 -12.5t41.5 0t50.5 4.5t46.5 2q4 0 11.5 -7.5t15.5 -18
t14.5 -21.5t8.5 -18l0.5 -2t0.5 -3q0 -14 -11.5 -28t-34.5 -20q-20 -5 -46.5 -9t-55.5 -7.5t-57.5 -5.5t-51 -3.5t-37 -2t-15.5 -0.5q-19 0 -35.5 12t-16.5 34z" />
    <glyph glyph-name="F" unicode="F" horiz-adv-x="363" 
d="M14 -17q2 -2 9.5 -4.5t8.5 -2.5t9 8.5t17 17t16.5 13.5t9.5 -2l1 -18l15 22q8 19 16 40.5t15.5 40.5t13 33t8.5 17l21 29l66 225l13 15l118 7q6 5 15.5 7.5t18.5 4t15.5 4t7.5 7.5q-12 3 -18.5 10t-12.5 14t-12.5 12.5t-17.5 6.5t-27.5 2t-30.5 3t-23.5 5t-7.5 8
q6 10 15.5 32.5t18.5 47.5t16.5 48.5t10.5 36.5q1 5 -1.5 8t-6 5t-6.5 4t-3 6v4q12 -1 31 1.5t35 2.5q20 0 29.5 7.5t11.5 15.5l147 7q6 9 17.5 12t23 5.5t20.5 7.5t11 18h-9q-10 0 -14 9q-3 5 -5.5 13.5t-2.5 15.5t0.5 12l0.5 5q-30 5 -47 4t-40 -1h-87t-101 -1t-101.5 -4
t-87.5 -8q-5 -2 -6.5 -8t-1.5 -13q0 -6 -0.5 -13.5t-2.5 -12.5q-39 -7 -50.5 -14.5t-9.5 -10.5h70q1 -8 -4 -12t-11.5 -5.5t-12 -2.5t-5.5 -4q0 -9 10.5 -12.5t23 -4.5t23 0t11.5 1l7 -7l-6.5 -20t-15 -45t-16.5 -48.5t-11 -31.5q-1 -3 -4 -8.5t-6 -11.5t-5.5 -11.5
t-3.5 -8.5q-2 -3 -7 -10t-6 -7h-54q0 -8 -7.5 -9.5t-15.5 -1.5q-10 0 -17.5 -1t-9.5 -7l31 -14q-4 -9 -4.5 -23.5t1.5 -14.5q9 -4 18 -5t17 -2t13 -3t7 -7q-2 -5 -9 -30t-15 -54t-15.5 -53t-8.5 -26q-7 -14 -7 -27v-18t-4 -25.5t-9 -44.5t-10.5 -52t-8 -49.5t-1.5 -37
t9 -13.5z" />
    <glyph glyph-name="G" unicode="G" horiz-adv-x="675" 
d="M136 125q-14 13 -29.5 31t-29.5 37.5t-25 40.5t-16 42q-1 3 -1 11t-1.5 17t-4.5 16.5t-9 8.5l3 47q-8 5 -12 16q3 57 13 93t22.5 60.5t26 42t24.5 38.5q-1 -6 8 6t21.5 29.5t24 32.5t16.5 15q1 0 10 6.5t19.5 14.5t20 15t11.5 8q2 2 10.5 10t10.5 10l10 7.5l12 9t10.5 8
t5.5 4.5q11 6 30 7t32 6q1 0 5 5t6 5h15q16 -1 35 -1q20 0 38 7q16 -1 31.5 -3.5t13.5 -15.5l99 -1q0 -2 8 -4.5t18 -5.5t19.5 -6.5t12.5 -6.5q10 -8 16.5 -22t10.5 -30.5t5 -33.5t0 -31q0 -1 -3 -6t-6.5 -11t-6.5 -10.5l-3 -4.5q0 -5 8 -2.5t8 -2.5q-1 -12 -4.5 -23
t-7 -22.5t-6.5 -24t-3 -25.5q-6 -5 -8 -10.5t-4 -12t-7 -13.5t-17 -15q-10 -7 -21.5 -14.5t-21.5 -14.5t-17 -13.5t-8 -12.5q-19 7 -29.5 17t-19 22t-18 26t-27.5 31q-10 9 -1 22.5t23 28.5t28 30.5t15 28.5q1 19 -10 38.5t-33 21.5q-2 0 -13 -2t-13 -2h-9l-14 1l-14 1h-9
q-2 0 -8 -1.5t-8 -2.5q-1 -1 -3 -3.5l-2 -2.5q-4 -1 -18 -2.5t-18 -0.5q0 -2 -6.5 -15t-14.5 -27.5t-14.5 -26.5l-6.5 -12q-5 0 -14 -4.5t-12 -4.5q-9 0 -20 -11.5t-22 -27.5t-20 -31t-12 -22q-8 -12 -17.5 -20t-10.5 -25q0 -5 1.5 -23t4.5 -38t8 -35.5t11 -14.5
q0 -3 -0.5 -11.5t-1.5 -17.5t-0.5 -17.5t0.5 -11.5q0 -2 3.5 -10t5.5 -11q1 -1 4.5 -2.5t4.5 -3.5q2 -3 0 -5l50 -28v-6q16 -1 28.5 -7t25 -13t26 -12t31.5 -4q3 -6 10 -10.5t15.5 -7.5t15.5 -4.5t9 -1.5q6 12 15 18t17.5 11.5t15 13.5t7.5 23q0 9 -5.5 15t-13.5 9.5
t-16.5 6.5t-14.5 8l-153 7q-26 15 -30.5 20t1 6.5t14.5 2.5t9 7q0 2 -5 3.5t-11 3t-11 4t-5 7.5l2 42q5 2 11.5 6.5t9.5 10.5l122 -6l11 3l86 -4q19 19 40 21t44 1q28 -2 38 -3t12 -6.5t0.5 -17.5t3.5 -34q0 -1 2 -2.5t2 -2.5q3 -17 5 -30t2.5 -25t0 -23.5t-1.5 -26.5
q-1 -28 -6.5 -54t-9.5 -55q-7 -3 -7 -9t-4 -11q-2 -3 -8 -10.5t-13.5 -15.5t-13.5 -15t-8 -9q-2 0 -6 -2l-6 -3l-8.5 -8.5l-14.5 -14.5t-15.5 -14.5t-9.5 -7.5q-13 -9 -36 -10.5t-44 -0.5l-24 1q-57 3 -105 22.5t-95 54.5q-17 13 -33 29.5t-36 26.5zM21 481q3 -2 3 -6
q-2 -5 -4 -4q-5 0 -3 5q0 5 4 5z" />
    <glyph glyph-name="H" unicode="H" horiz-adv-x="489" 
d="M229 46q3 16 8 38.5t3 39.5l7 69q2 24 7 38.5t5 34.5q-8 0 -13 3t-11 1q-16 -5 -26.5 -21.5t-13.5 -31.5q-9 -33 -18.5 -63t-16.5 -72q-3 -15 -8.5 -20.5t-12.5 -6.5t-15 -1q-7 0 -14 -4q-8 -4 -13 -9.5t-9.5 -10.5t-11 -8.5t-16.5 -3.5q-35 0 -47.5 9.5t-12.5 43.5v32
q5 25 14 69.5t19.5 92.5t20.5 92.5t16 68.5q3 12 7.5 33t10.5 45.5t13 51t14 49.5t13.5 40.5t12.5 23.5l69 16q2 0 12 3.5t19.5 4t14.5 -5t-2 -23.5q2 -13 7.5 -14t11.5 -0.5t10.5 -1.5t4.5 -17q0 -26 -7.5 -56t-6.5 -52q1 -18 -5.5 -44t-13 -48.5t-8 -36.5t9.5 -8
q3 0 9.5 -1t13 0t12.5 3.5t8 10.5l90 380l58 21q4 1 7 -4t6 -11.5t5.5 -11.5t5.5 -4q5 1 9 1.5t8 0.5q11 0 15.5 -12.5t-0.5 -46.5q-2 -13 1.5 -20t8 -12t8.5 -10t4 -14q0 -28 -10.5 -63t-16.5 -62l-12 -57q-22 -92 -37.5 -155t-27 -109t-19 -81t-13.5 -72l5 -41
q1 -5 -2.5 -9t-8.5 -6.5l-9 -4.5t-4 -3q-7 -18 -15 -25t-13 -7h-6q-1 1 -2 6.5t-1.5 12.5t-1.5 12.5t-2 6.5l-12 4t-12 0q-10 -4 -15 -5.5t-17 6.5q-5 4 -12.5 5.5t-14 4.5t-12 10t-6.5 22z" />
    <glyph glyph-name="I" unicode="I" horiz-adv-x="239" 
d="M32 55q1 -8 7 -6.5l10 2.5q3 0 4 -4q3 -11 12.5 -16t17.5 5q4 0 5.5 -8.5t4.5 -8.5l48 19q8 9 10 29t10 51q3 11 7.5 17t9 10.5t8 8.5t5.5 11q8 40 14.5 77.5t12.5 74.5t12 74.5t12 78.5q8 46 21 105t23 117q8 10 5 14.5t-11 7.5t-18.5 5.5t-17.5 8.5l8 81q1 8 -3.5 8.5
t-10.5 -2.5t-11.5 -6.5t-7.5 -3.5q-17 -2 -21 -7t-9 -21q-18 -55 -34 -113.5t-30.5 -117t-28.5 -115t-29 -106.5q-5 -14 -8 -20t2 -20l-34 -194v-21z" />
    <glyph glyph-name="J" unicode="J" horiz-adv-x="564" 
d="M443 70q0 1 2 6.5t4 13t3.5 16t0.5 15.5q-3 12 -2 23.5t3.5 21t5 16l2.5 6.5q0 22 2 36.5t5.5 28t8.5 28t10 35.5q5 36 9 64t7 54t5.5 52.5t3.5 58.5q17 54 25 83t11.5 45.5t6 27t8.5 27.5q0 2 -2.5 7.5t-5.5 12t-5.5 11.5t-2.5 7q-2 1 -18 6.5t-35.5 11.5t-36 11
t-18.5 5q-45 0 -66.5 -3.5t-28 -11t-2 -20t11.5 -31t12 -44t-1 -57.5q-22 -115 -41.5 -222.5t-40.5 -222.5l-23 -25q0 -6 -3 -6.5t-7.5 1t-10 3.5t-9.5 2q-23 0 -37.5 7.5t-37.5 23.5q-8 22 -8.5 46.5t1 45t1 33.5t-9.5 13l-124 2q-2 0 -5.5 -7.5t-4.5 -12.5v-6
q0 -5 -0.5 -12t-0.5 -15v-11q0 -45 13.5 -81t37.5 -65.5t57.5 -53.5t72.5 -46q21 -4 37.5 -7.5t32.5 -5.5t32.5 -3.5t36.5 -1.5q28 7 50 13t37.5 13.5t24 17t9.5 24.5z" />
    <glyph glyph-name="K" unicode="K" horiz-adv-x="595" 
d="M0 -22q0 20 3 44t4 44q1 24 6.5 47t12 45.5t13.5 45t11 44.5q3 13 13 45t21.5 67.5t21.5 67t13 44.5q-4 24 3 54.5t16.5 63t18 63.5t8.5 57l-145 -17q-3 0 -3 10q0 11 0.5 24.5t-1.5 25.5t-9 13l310 53h10q5 0 12 1.5t13 2t9.5 -0.5t1.5 -6q-15 -33 -29 -74.5t-24 -73.5
q-2 -5 -6 -20t-8.5 -32.5t-9 -34t-6.5 -23.5v-5v-5q13 23 33.5 59.5t44 74t47.5 70t44 47.5q12 -10 24.5 -11.5t23.5 1t19.5 6t13.5 3.5h11q18 0 34 -13t16 -31q0 -15 -13.5 -32t-30 -36t-31 -41t-17.5 -47l-142 -212l59 -284q1 -3 1.5 -9t1 -13t0 -13t-2.5 -8l-33 -29
q7 -10 -2 -22.5t-24 -20t-31 -7t-22 16.5q-10 26 -19 45.5t-16 36t-12.5 32.5t-8.5 34q0 3 -4.5 18.5t-9.5 33t-10 33t-6 18.5q3 20 2 30.5t-3.5 15.5t-4.5 7.5t-2 6.5q-5 -39 -15.5 -78t-22.5 -77.5t-23.5 -77t-18.5 -77.5q-24 3 -34.5 -4.5t-15.5 -18t-10 -19.5t-17 -9
h-20q-9 0 -16.5 3t-12 9.5t-4.5 18.5z" />
    <glyph glyph-name="L" unicode="L" horiz-adv-x="416" 
d="M-1 48q0 1 3 7t7 12.5t7 12.5t3 8q8 29 10.5 65t-0.5 65q30 124 57 244.5t47 245.5q2 10 3 20t3 20q1 5 -2.5 10t-6.5 9.5t-4.5 8.5t2.5 7q16 12 46 16t61.5 5t58.5 -0.5t38 -1.5q0 -9 2.5 -14t3 -10.5t-2 -14.5t-12.5 -26q-21 -36 -34 -80t-20 -89q-9 -54 -16 -106.5
t-16.5 -104.5t-24 -103t-38.5 -102q5 -14 22.5 -15.5t40.5 2.5t47.5 9t44.5 5q6 -2 16 -10t19.5 -18.5t16.5 -20.5t8 -16q1 -5 5.5 -13t9.5 -15.5t8.5 -14.5t0.5 -11q-5 -8 -23 -12.5t-39.5 -7t-42 -4t-29.5 -2.5q-13 -2 -41 -5t-58 -6t-56 -5.5t-35 -3.5q-2 0 -13 -0.5
t-16 -0.5q-11 0 -22.5 4.5t-20.5 13t-14.5 19.5t-3.5 24z" />
    <glyph glyph-name="M" unicode="M" horiz-adv-x="717" 
d="M0 28q3 19 6 46t6.5 53.5t9 46t13.5 23.5t11 13.5t4 21.5t2 23.5t5 19.5l80 340q5 8 9.5 29t10.5 43t14 38t20 15l76 -7q17 -11 25.5 -13t13 -1t8 4t10.5 3q11 0 20.5 -13.5t17.5 -34.5t15 -46t12.5 -48t10 -40.5t8.5 -23.5q0 -1 2 -1.5t3 -0.5q3 0 5 2q14 25 33.5 61
t39 68t37 54.5t26.5 20.5q10 -2 21 5t21.5 19t20.5 26t19 26h10q2 0 7.5 2.5t11.5 5.5t11.5 5.5t7.5 2.5q18 0 34 -12t31 -20q9 -5 11 -19.5t1 -33t-3.5 -37.5t-2.5 -31q0 -7 -1.5 -29t-4.5 -45.5t-7 -42.5t-8 -20l-84 -341q2 -7 -1.5 -31t-11.5 -52q-4 -11 -9 -21.5
t-10 -19.5q-6 -10 -10 -17t-12 -9q-6 -1 -11 -13t-9.5 -25t-9 -21t-8.5 -2q-1 1 -4.5 13t-6 21t-2.5 11q-7 3 -16 3.5t-18 0.5t-17 1.5t-13 7.5l-27 29q0 28 8 58.5t13 59.5q3 15 5 26t4 25l5.5 14t13.5 34.5t18 44.5t18 45t13.5 35t5.5 15q-1 0 -10 -13t-21.5 -33t-27 -43
t-27.5 -43t-22 -32.5t-10 -12.5q-11 5 -23 4t-25 4q-12 5 -30.5 7.5t-26.5 4.5q-17 13 -24 29t-12 42q-5 28 -15.5 55t-19.5 49q-7 -12 -13 -33t-11 -42t-10 -39t-10 -25q-6 -8 -10 -23t-6.5 -32.5t-4.5 -34.5t-4 -27q-7 -33 -14 -62t-13.5 -51t-14 -35.5t-14.5 -13.5
q-15 0 -24.5 -6t-17.5 -13t-17 -13.5t-23 -7.5l-59 37z" />
    <glyph glyph-name="N" unicode="N" horiz-adv-x="620" 
d="M0 42q0 48 11.5 95.5t22.5 98.5q5 25 11 56t12 61.5t12 58t11 47.5q4 15 11 40t16 55t19 63t20 62.5t19.5 54t16.5 38.5q77 -4 109 -29l20 16q6 4 14 -3t16.5 -18.5t16 -23t12.5 -15.5q2 -8 7.5 -26.5t12 -39t12.5 -39t8 -25.5q3 -8 6.5 -28.5t7 -44t7 -44t6.5 -28.5
q5 14 8.5 41.5t7.5 60.5t9 69.5t12.5 67.5t18.5 54.5t27 31.5q10 5 22.5 7.5t26 5t27 6.5t24.5 11q9 1 18.5 -1t15.5 -7.5t6 -13.5t-10 -18q0 -1 0.5 -10t0.5 -14q0 -32 -10 -54.5t-21 -51.5v-10l-10 -50q-10 -57 -24.5 -114.5t-25.5 -115.5q-4 -20 -9.5 -29t-10.5 -16
t-10.5 -16t-9.5 -29l-20 -110q-6 -25 -12.5 -37.5t-16 -22t-24.5 -20t-37 -30.5h-8q-5 0 -7 -1q-8 -2 -12.5 11t-8 34.5t-7 49.5t-10.5 56q-5 18 -9.5 39t-9.5 40t-9.5 35.5t-8.5 25.5q-8 47 -24.5 89.5t-35.5 80.5q-2 -4 -4 1t-4.5 10.5t-5 8.5t-4.5 -4q-7 -28 -15.5 -70.5
t-16 -84t-12 -73.5t-3.5 -39q-8 -57 -19.5 -98.5t-28.5 -79.5q0 -1 -3 -11t-8 -12q-1 0 -7 0.5t-12.5 1.5t-12.5 1.5t-7 -0.5l-5.5 -5.5t-9.5 -10t-9.5 -9.5t-5.5 -4l-62 20q-6 8 -5.5 14t0.5 17z" />
    <glyph glyph-name="O" unicode="O" horiz-adv-x="756" 
d="M59 178q-4 22 -12 41t-19 37q-4 4 -3 12t2 15.5t-0.5 14t-9.5 9.5l-10 52l-5 4v16q0 31 7 59t8 60q5 1 7.5 6t3.5 11t1.5 12t2.5 11q42 70 94 127t118 105q4 3 17.5 7t28.5 8t26.5 8t13.5 7h105q6 -9 17 -13.5t23.5 -7.5t24.5 -6t21 -9q38 -29 75 -67t71 -78l2 -2.5
t4 -2.5q14 -11 22.5 -23t14 -25.5t9.5 -28t10 -30.5l1 -2t2 -3q3 -30 11 -57t8 -56q0 -75 -28.5 -145t-88.5 -121q-1 0 -19.5 -13t-43 -29t-49 -30.5t-36.5 -17.5q-29 -12 -54.5 -21.5t-66.5 -9.5q-40 0 -83.5 16.5t-84.5 42.5t-77 57t-61 60zM167 369q1 -2 6 -7.5t6 -6.5
q2 -8 9 -19t8 -13v-8v-15v-14v-9q2 -14 11 -25t20 -20t23 -16.5t20 -15.5q4 -5 13.5 -8.5t20 -6t21 -4.5t17.5 -5q3 0 17 -0.5t20 -0.5q13 0 40.5 6t56 18t51.5 29.5t26 40.5q0 3 1 11t1.5 18t1 19t0.5 12q6 3 8.5 8t4 10t3 9.5t6.5 6.5q7 22 8 35.5t1 30.5v29
q-15 23 -26 42t-22.5 34.5t-27 29t-40.5 24.5q-6 3 -8 5.5t-3 5.5t-1.5 6.5t-3.5 8.5q-4 4 -11 6t-15.5 3.5t-16 4t-11.5 8.5h-84q-3 -9 -10 -11.5t-10 -10.5q-2 -3 -6.5 -13t-7.5 -13q-14 3 -35 -15.5t-40.5 -44t-33.5 -50t-14 -33.5q0 -16 5 -28.5t5 -24.5v-14l-2 -4
t-2 -5zM531 764q2 0 2 -5t-2 -5q-5 0 -5 5t5 5z" />
    <glyph glyph-name="P" unicode="P" horiz-adv-x="453" 
d="M17 56l-1 20q-12 10 -15.5 17t-3 13t3 11t2.5 10q0 23 8 54t19 64q2 7 7.5 12t6.5 12q2 24 8 42t12 30.5t11 21t5 13.5t4.5 26t12 50t16.5 62t17.5 64t15 55.5t9.5 35.5l5 44q-1 1 -9.5 0.5t-20.5 -0.5q-11 0 -23 1.5t-19 4.5l6.5 5.5t12.5 9.5t7 5q-26 7 -27.5 14.5
t13 14.5t39.5 13t52 11t52 7.5t38 2.5h12q9 0 18.5 0.5t18.5 0.5h12q1 -6 10.5 -9.5t22 -6.5t24 -5t16.5 -4q27 -10 48.5 -26t35.5 -41v-11q0 -7 0.5 -15t0.5 -16v-10q0 -30 -3 -60t-15 -59q-17 -19 -36 -43t-32 -44q-7 -11 -21.5 -21.5t-33 -19.5t-38 -16t-35.5 -10
q-16 -4 -35 -4h-37q0 -3 -4.5 -2t-8 0t-2.5 -5.5t12 -17.5l-73 -238q-2 -41 -10 -63.5t-14 -14.5q-9 12 -16.5 11.5t-14 -7.5t-12.5 -18t-11 -20t-10 -13.5t-9 0.5q-2 1 -3 5.5t-2.5 8.5t-2.5 6.5t-2 0.5q-6 -16 -16 -24t-10 -5zM349 698h-19q-6 0 -11.5 5.5t-10.5 1.5
l-47 -165q11 0 21 5.5t21 12.5t23 13.5t27 8.5q11 1 17 9t9 18.5t3.5 21.5t0.5 18q0 17 -6.5 34t-27.5 17z" />
    <glyph glyph-name="Q" unicode="Q" horiz-adv-x="756" 
d="M0 417v21l10 9q3 59 28.5 110.5t59.5 96.5q2 3 16 12.5t33.5 22.5t41.5 28t41.5 27.5t32.5 21t15 9.5q5 1 11 1.5t11 1.5t8.5 4t5.5 10h47q0 2 2 4.5t3 3.5h3h2q7 -1 18 -3t21.5 -3.5t19 -2.5t9.5 -1q23 -6 46.5 -18.5t46.5 -27.5t45 -31t41 -29q2 0 2 -2q0 -1 -2 -3
q9 -2 18.5 -8.5t18 -14t15.5 -15.5t11 -12q-2 -5 4.5 -17.5t15 -26.5t16.5 -27.5t10 -19.5q1 -1 1.5 -6.5t1.5 -11.5t1.5 -11.5t0.5 -6.5q1 -4 6.5 -19.5t9.5 -27t5 -13.5q0 -2 0.5 -13t0.5 -14q0 -14 -4 -32t-8.5 -36t-8 -34t-1.5 -26l-36 -71l-7 -7t-10 -11t-9 -11t-5 -6
l-1 -2q0 -12 13 -22.5t28.5 -23.5t28.5 -29.5t13 -41.5v-2q-2 -2 -7.5 -8t-7.5 -7h-1q-13 0 -37 7.5t-48.5 16t-44 15.5t-23.5 6q-4 0 -11 -5.5t-14.5 -12.5t-13.5 -13.5t-7 -8.5q-32 -27 -72.5 -38.5t-82.5 -11.5q-30 0 -64 5t-60 20q-26 14 -42 32.5t-36 38.5
q-37 36 -64 62t-46.5 54t-32.5 62t-22 87q-3 17 -6.5 26.5t-3.5 29.5zM170 359q0 -8 9 -27t21 -40t24.5 -39t18.5 -22q11 -9 27 -16t24 -19q3 -5 4.5 -10t4.5 -9.5t8 -7.5t14 -3h78q3 5 12.5 9t12.5 6q-11 2 -12 8.5t-9 11.5q0 4 -0.5 13t-1.5 19.5t-1.5 19.5t-0.5 14v4v5
q2 2 12 4t13 1q2 0 13 -5t13 -5h6h9h10h6q1 0 3.5 -2.5t6 -5t6.5 -5t4 -2.5t5 -0.5t6 -0.5q12 0 20 10.5t14.5 24l13 27t14.5 20.5q0 4 0.5 16.5t0.5 15.5q0 24 -5 54.5t-24 48.5v61q-8 1 -11 8t-3 12q-2 1 -7.5 3.5t-12.5 6t-12.5 6.5t-7.5 4q-8 3 -22 10t-28 13.5
t-27 11.5t-19 5q-11 0 -18 -1t-13.5 -2t-14 -1.5t-19.5 0.5l-57 -30q0 1 -2 1h-1t-2 -1q-4 -2 -13.5 -5.5t-11.5 -5.5q-33 -15 -42 -38.5t-5 -61.5q-8 -5 -14 -20.5t-10 -33.5t-5.5 -34t-1.5 -21zM305 190q4 0 4 -5q0 -4 -4 -4q-5 0 -5 4q0 5 5 5z" />
    <glyph glyph-name="R" unicode="R" horiz-adv-x="491" 
d="M-18 2q0 -4 1.5 -2l4.5 6l6 8t6 4t4.5 -3t2.5 -6t2.5 -6t4.5 -3q7 0 10 6t6 14.5t7.5 18t13.5 16.5q6 6 12 7.5t10 1.5q5 0 9 0.5t6 5.5q1 4 6 19l11.5 34.5l13 39t11.5 31.5l3 9l2 6t2.5 7t4.5 13q8 14 16 39q11 23 20.5 45t15.5 35q5 11 11 20t20 9q2 0 5.5 -0.5
t4.5 -0.5q9 -16 12 -37.5t4 -50t3 -63.5t10 -77l-7 -97q5 -16 14 -27t26 -11q6 0 13 -1.5t15 3t16.5 18t18.5 44.5q4 14 9.5 16t10.5 0t8 -5t3 0q0 6 2.5 19.5t2.5 33.5q0 17 -2 37t-2 26q0 56 -4.5 103t-14.5 103q4 10 21 20.5t39 24t46.5 31.5t45.5 43.5t34.5 59.5
t13.5 81q0 18 -5 29.5t-5 29.5q0 17 -13 28t-32 18t-40.5 10.5t-38.5 5.5q-31 3 -38.5 5.5t-4.5 5t9 6.5t3 11h-16q-12 0 -24.5 -1t-24.5 0l-21 1q-33 1 -64.5 -1t-62.5 -6l-62 -8t-64 -5q-6 -2 -14.5 -9.5t-1.5 -11.5t7 -7q0 -5 -6 -7t-6 -4q-1 -7 9 -10t25 -5t33 -3
t33.5 -4t26 -9.5t10.5 -17.5q0 -2 -0.5 -5l-0.5 -3l-188 -538q-1 -2 -0.5 -2.5t1.5 -3t0.5 -8.5t-4.5 -19l-31 -122zM378 711q32 0 44 -10t12 -38q0 -24 -19 -44t-46.5 -37.5t-57 -32t-50.5 -26.5q1 2 4.5 14t8.5 26.5t5 15.5q19 43 26 69.5t13 41t18 19t42 3.5v-1z" />
    <glyph glyph-name="S" unicode="S" horiz-adv-x="594" 
d="M208 24q-29 8 -58.5 20t-55.5 27.5t-44.5 36t-24.5 44.5q-4 14 -11.5 26.5t-10.5 26.5l1 3q1 7 22 14t46.5 12t50 7.5t33.5 0.5q21 -4 29 -19t13.5 -32t14.5 -32t32 -20q12 -2 31.5 -4t30.5 -2q7 7 16 6.5t17 -0.5q9 0 16 6t12 27l1 4q0 2 -0.5 9t-3.5 9q-26 22 -45 46.5
t-36 50t-34 51.5t-37 52q-11 0 -17 4.5t-10 11t-7.5 13.5t-7.5 13q-2 1 -5.5 7t-7.5 13l-8 14t-7 10q-49 47 -59 95t1 102q3 13 10 28.5t16.5 29.5t21.5 26t26 18q22 10 50.5 16.5t59 9.5t60.5 2t55 -6q13 -2 28.5 -9t31 -15t31.5 -16t30 -12q1 -5 15 -12t31 -17t33 -22
t22 -27q6 -16 17.5 -35.5t9.5 -36.5q-3 -9 -23 -15t-44.5 -9t-48 -3.5t-32.5 1.5q-5 2 -15 4t-13 8l-32 65q-4 7 -17.5 10t-18.5 4q-18 4 -36.5 7t-35 1t-28.5 -10.5t-16 -27.5q-2 -9 -2.5 -13t1.5 -7.5t6.5 -7.5t13.5 -13q21 -23 35.5 -43t27.5 -39.5t26.5 -39t31.5 -41.5
q9 -13 15.5 -28t20.5 -29q8 -8 19 -19.5t22.5 -24.5t21.5 -25t16 -22q8 -14 12 -28.5t17 -24.5q-4 -28 -4 -56t-5 -54q-8 -39 -31 -62.5t-55.5 -36t-73 -16.5t-83.5 -4q-1 0 -7.5 0.5t-14.5 1t-16.5 1t-12.5 1.5l-13 3q-2 1 -8 -3t-7 -4q-8 0 -11.5 8t-6.5 16z" />
    <glyph glyph-name="T" unicode="T" horiz-adv-x="248" 
d="M16 47q0 20 -1.5 32.5t-1.5 25.5q0 9 3 20q10 36 20.5 80t24.5 84q12 34 14 46t-0.5 15t-6.5 4t-5 12l64 279v29q-5 0 -16 8t-29 6q-11 -2 -18 3.5t-17 9.5q-17 5 -32 7t-15 6v70l8 9q1 1 15 3t33 3.5t38.5 2.5t32.5 1h14q11 0 26.5 0.5t31.5 0.5h24q16 0 43 -0.5
t57.5 -1.5t60.5 -4t53 -7.5t34.5 -12t5.5 -18.5q-2 -2 -1 -8.5t2.5 -13.5t3.5 -12.5t4 -5.5q10 -5 27.5 -9t30 -8t14 -7.5t-18.5 -7.5q-9 -1 -29 -1.5t-46 -0.5h-53h-54q-26 0 -46 -0.5t-29 -1.5q-14 0 -21 -0.5t-16 -19.5q10 -4 23.5 -5.5t24 -4.5t16 -8.5t-0.5 -16.5
q-1 -2 -4 -12.5t-4 -12.5q-16 -57 -37.5 -110.5t-34.5 -110.5q-4 -14 -5.5 -39t-1.5 -39q-1 -18 -6.5 -48t-13.5 -65t-18.5 -73t-20.5 -73q-5 -28 -8 -37t-16 -9h-21l-26 -1q-6 1 -17.5 2t-22.5 2t-19.5 1.5t-9.5 0.5q-5 1 -6.5 6.5t-1.5 11.5q0 8 1 14.5t1 9.5z" />
    <glyph glyph-name="U" unicode="U" horiz-adv-x="522" 
d="M155 17q-10 0 -19.5 1t-17.5 1t-13.5 -3.5t-8.5 -12.5q-4 -12 -19 -6t-31.5 21.5t-30 37.5t-13.5 41v11q1 10 4 30.5t6.5 41.5t6 38t3.5 20q3 15 9.5 44t14.5 64.5t17 75t17.5 75.5t15 65t10.5 43l3 11.5t7 25t7 25.5t3 13q0 3 -0.5 12t-2 19.5t-4.5 18.5t-7 10
q8 3 11.5 3.5t5.5 2t3 4t4 10.5q13 -2 33 2t40 9.5t36.5 10t22.5 4.5h41q0 -31 -5 -53t-11.5 -42t-14 -41t-12.5 -50q-7 -42 -15 -88.5t-16 -88.5q-5 -24 -12.5 -50t-14.5 -53t-12 -54t-5 -52q0 -5 -0.5 -11t1 -12t4.5 -10t11 -4t17 11t20 14q15 5 25 5.5t23 0.5
q11 36 18 75t12 79t10.5 80t13.5 78q1 3 6 16.5t10 28.5l9.5 28.5t4.5 16.5q1 9 3 31.5t3.5 48t2.5 48.5t1 32q2 22 13.5 27t26.5 5q2 0 10 -0.5t10 -1.5l129 -113q-15 -11 -24.5 -36t-16 -55.5t-10.5 -61.5t-8 -54q-2 -10 -8 -35.5t-14.5 -58t-17.5 -69t-17.5 -69.5
t-14.5 -59t-8 -37q-1 -33 -4.5 -61.5t-16 -48.5t-36.5 -31.5t-67 -11.5q-35 0 -61.5 5.5t-62.5 5.5z" />
    <glyph glyph-name="V" unicode="V" horiz-adv-x="595" 
d="M8 737q0 9 4 12.5t10 5t12.5 3.5t11.5 8q13 15 25 20t23 5q4 0 17.5 -0.5t17.5 -0.5q21 -12 32.5 -37t18 -54t10.5 -58.5t9 -50.5q3 -11 12.5 -46t21 -76.5t21.5 -80.5t15 -57q1 -4 4.5 -15.5t5.5 -14.5q2 1 5.5 4.5t4.5 5.5q3 8 11 44l19 85.5t24.5 105t26 102.5t24 79
t19.5 34q18 -4 39 -0.5t41.5 9.5t39 11.5t32.5 5.5q11 0 18 -10t7 -21q0 -1 -0.5 -2.5t-0.5 -2.5q-27 -88 -50 -174t-47.5 -170.5t-54 -168t-68.5 -167.5q-6 -14 -11 -32t-19 -28q-23 3 -40.5 2t-30 -3.5t-20.5 -5.5t-11 -3q-17 0 -33.5 7.5t-24.5 22.5q-11 22 -12.5 44.5
t-7.5 45.5q-18 73 -35.5 145t-34.5 145q-9 38 -23 79t-26.5 83t-22 83.5t-9.5 81.5z" />
    <glyph glyph-name="X" unicode="X" horiz-adv-x="571" 
d="M12 74q0 21 6 39t15 37t19 41t19 51q8 26 17 49.5t17 42.5t13 31.5t5 17.5q0 4 -6.5 22.5t-14 44t-14.5 54.5t-9 53q-2 19 -8 37.5t-13 36t-12.5 34t-5.5 30.5q0 4 -3.5 13.5t-6.5 19t-3.5 17.5t5.5 9q21 4 39 10.5t34 13t31 11.5t30 5q23 0 36.5 -1t20 -9.5t7.5 -26
t0 -50.5q0 -6 1.5 -14t3.5 -15.5t4 -14t2 -9.5l25 -103q1 -4 2 -18.5t2.5 -31t2.5 -31t1 -19.5l10 7q1 0 5.5 6t9.5 14t9.5 16t6.5 12q2 5 8.5 22.5t14.5 37.5t15.5 39.5t11.5 29.5q4 11 10.5 23.5t13 24.5t11.5 22.5t7 16.5q4 21 6 32.5t5 18t9 11t18 11.5t17.5 11.5t7.5 7
t3.5 4t6.5 3.5l31 9q7 -5 18 -4.5t20.5 -0.5t15 -7t1.5 -24q0 -46 -6.5 -93.5t-28.5 -98.5q-20 -46 -35 -93.5t-25 -89.5l-10 -9q-5 -6 1.5 -29.5t18 -62t24.5 -90.5t21 -114v-32q-4 -3 -5.5 -8t-8 -10.5t-21 -12t-44.5 -13.5q-9 -2 -14.5 -7t-10 -10.5t-9 -9.5t-11.5 -4
h-23t-16 4t-12 13.5t-11 28.5q-1 4 -2.5 20t-3.5 35t-4 35t-3 21q-3 19 -9 47.5t-11.5 54.5t-10.5 45t-6 19h-13q-1 0 -6 -9t-11 -23.5t-13 -34t-11 -40.5q-4 -18 -13 -39.5t-24 -37.5q-12 -13 -21.5 -37.5t-17 -48.5t-14.5 -41.5t-15 -16.5q-20 2 -32.5 -5t-21.5 -15
t-16 -12.5t-16 1.5l-45 34z" />
    <glyph glyph-name="Y" unicode="Y" horiz-adv-x="459" 
d="M50 -31l-51 48l67 212l11.5 34.5l16.5 49.5q4 12 9 24t7 17q-2 3 -6.5 11t-9.5 17.5t-9 18t-4 11.5q-8 63 -16 106t-15 78t-11 68t-4 75q0 5 0.5 20t0.5 20q0 1 4 2.5t8.5 4t8.5 4t4 2.5q0 7 7 12t16.5 8.5t19.5 5t15 2.5t3 0.5t-16 -1.5q10 -16 17.5 -26.5t18.5 -9.5
l53 -160q3 -17 6.5 -17.5t10.5 10t17 30t27 43.5q6 8 13.5 21t15.5 26t18.5 22.5t22.5 10.5l35 3l36 2l51 -6q9 -1 10 -11t1 -14q0 -2 -0.5 -7.5t-0.5 -7.5q-7 -8 -18.5 -25t-25.5 -39.5t-29 -47.5t-28.5 -48t-24.5 -41.5t-16 -27.5q-11 -18 -25 -47t-28 -59
q-5 -11 -14 -20.5t-10 -12.5l-83 -321q-2 -8 -6 -17.5t-10 -16.5t-13.5 -9.5t-16.5 4.5q-11 8 -19.5 4t-15.5 -11.5t-13 -15.5t-12 -8z" />
    <glyph glyph-name="Z" unicode="Z" horiz-adv-x="571" 
d="M33 0l-23 30q6 12 8 27t2.5 30t0 30t-0.5 28q6 22 24.5 52t43.5 65t54 73.5t57 77.5t52.5 78.5t39.5 76.5q20 27 20 34t-8 4.5t-19 -7.5t-14 -1l-150 5q-3 0 -7 -2t-6.5 -0.5t-2 10.5t5.5 31l23 103q1 6 -3.5 15t-7.5 17t-1.5 14t15.5 6q8 1 30 1.5t51 0.5h63h63h52h31
q7 0 20 -0.5t26.5 -5t26 -14t20.5 -26.5q5 -11 13.5 -20.5t16.5 -19t14 -19t6 -21.5q0 -8 -20.5 -22t-46.5 -30q-6 -4 -18 -23t-25 -42t-24.5 -44.5t-16.5 -30.5q-10 -17 -23.5 -42.5t-29.5 -52t-33.5 -49t-34.5 -33.5l-110 -168l167 -1q11 0 21.5 -8.5t23.5 -25.5t29 -29.5
t14 -26.5l-3 -20q-2 -3 -11 -8.5t-12 -7.5q-34 -8 -73.5 -11.5t-80.5 -5.5t-81.5 -2.5t-75.5 -1.5q-9 0 -18 -0.5t-18 -0.5z" />
    <glyph glyph-name="t" unicode="t" horiz-adv-x="376" 
d="M31 650q1 0 10 -1.5l9 -1.5q12 -3 32 -7t33 -7t15 -3l13 -17l-11 -46l-83 -433q-2 -19 -6.5 -31t-8.5 -21t-7.5 -17t-4.5 -19v-14t1 -15t4 -10t8 0q13 6 29 4t27 -3q8 0 11 3q6 5 10 5t7 -1t5.5 -2t5.5 1l21 14l14 -17q3 -5 7.5 4.5t9 28t9.5 42.5t10 49.5t9.5 49.5
t9.5 41q1 5 6 23t10.5 38.5t10.5 37.5t6 21q7 31 14 57.5t12.5 51t9.5 48.5t6 51q0 5 4 17.5t5 17.5q-4 2 -17 8t-15 9l-1 4q1 13 28.5 16.5t63 4t68.5 1.5t45 10q-1 0 -7.5 1.5t-14 3t-13.5 2.5l-6 1q-11 7 -15 10t-6 6.5t-3.5 10.5t-5.5 23q-23 9 -38.5 13.5t-29 6.5
t-28.5 2.5t-38 1.5q-45 0 -81.5 4.5t-66.5 3.5q-20 -2 -41.5 -4t-48.5 -6q-8 -1 -9 -5t0.5 -8.5t4 -8.5t2.5 -5l-3 -18z" />
    <glyph glyph-name="one" unicode="1" horiz-adv-x="235" 
d="M0 69l23 89l28 218q-2 19 2.5 49.5t10.5 62.5t11.5 61.5t5.5 46.5q0 13 -7 18t-14.5 8t-13.5 7t-4 16q5 19 14 40.5t20 43t24 41t27 35.5l15 15t17 7q8 0 15.5 -4.5t13.5 -11t11 -13.5t8 -13q6 -11 18 -15.5t21 -8.5q7 -3 13.5 -19.5t10.5 -35.5t5 -35t-2 -17
q-14 -7 -21.5 -18t-7.5 -35l-83 -446q-8 -23 -8.5 -60t-10.5 -83q-2 -11 -4 -18.5t-11 -7.5t-16 4.5t-16 4.5t-19.5 2.5t-21 6t-20 6.5t-15.5 4q-13 2 -11 8t2 21z" />
    <glyph glyph-name="zero" unicode="0" horiz-adv-x="746" 
d="M61 164q-4 21 -17 37.5t-23 33.5q-3 4 -2.5 11t1.5 14.5t-0.5 14t-8.5 8.5l-10 50l-4 4v15q0 29 6.5 56t7.5 58q5 1 7 5.5t3 10.5t1.5 12t2.5 10q38 67 85.5 120.5t107.5 98.5q4 3 18.5 7.5t30.5 9.5t29 10t14 8h97q81 -20 133 -64.5t81 -108.5l2 -2.5t3 -2.5
q26 -20 40.5 -47.5t25.5 -58.5l1 -1.5t2 -2.5q3 -29 10 -54.5t7 -53.5q0 -72 -33.5 -137t-87.5 -113q-1 0 -18.5 -12.5t-40 -27.5t-45 -29t-33.5 -17q-26 -12 -61.5 -15.5t-72.5 -3.5q-38 0 -74.5 14.5t-69.5 37t-62 50.5t-53 55zM160 346q1 -1 5.5 -6.5t5.5 -6.5
q2 -7 8.5 -18t7.5 -12v-8v-14v-14v-8q2 -14 9.5 -22t17 -13t19.5 -10t18 -12q4 -5 13.5 -11t20.5 -12t22 -11.5l17 -8.5h43q12 0 35.5 9t47.5 23t43.5 30t22.5 30q1 3 1.5 11t1 17t1 17.5t0.5 11.5q6 3 8 7.5t3 9.5t2.5 9.5t5.5 6.5q7 20 8 33.5t1 29.5v27q-14 22 -24 40.5
t-21 33.5t-25 27.5t-37 23.5q-6 3 -8 5.5t-2.5 5t-1 5.5t-3.5 8q-3 4 -9.5 6t-14 3.5t-15 4t-11.5 7.5h-76q-3 -8 -9.5 -10.5t-9.5 -10.5q-2 -2 -6.5 -12t-6.5 -12q-13 3 -32.5 -15t-37.5 -42t-31 -47.5t-13 -32.5q0 -15 5 -27t5 -24v-13l-2 -4t-2 -5z" />
    <glyph glyph-name="six" unicode="6" horiz-adv-x="960" 
d="M-76 -34q0 7 1 14.5t10 8.5h65h65q9 0 23 1t27.5 2.5t23.5 3t11 2.5l8 8q0 2 1 21t1 36v19q0 117 -10.5 232.5t-10.5 232.5v9q0 8 0.5 16t0.5 15v10q6 22 21 26.5t30 4.5q5 0 10 0.5t10 1.5q8 2 6.5 17t-3.5 45l-137 -6q0 13 5 32t21 25q19 0 59.5 0.5t91.5 1.5t107 2
t107 2t91.5 1.5t60.5 0.5h22q8 0 19 1.5t18 -3.5q12 -8 16.5 -19.5t6.5 -27.5q-4 -2 -2.5 -6.5t1.5 -7.5t-5 -4.5t-22 2.5q-12 -1 -34 -2.5t-37.5 -3t-17.5 -1.5l6 -27l-197 -464q-3 -3 -7 -4.5t-9 -6t-10 -14.5t-10 -29q-6 -20 -15.5 -41.5t-18.5 -39.5t-15.5 -32t-6.5 -19
h148q7 0 11 -4t6 -10t2.5 -12t0.5 -10q0 -2 -0.5 -6.5t-0.5 -6.5q-14 -1 -44 -2t-68.5 -2t-80.5 -2t-80 -1.5t-68 -1t-45 -0.5h-73h-75q-9 2 -10 9.5t-1 12.5zM299 288l10 -27q9 6 16.5 15t13.5 19.5t10 20.5t7 18q3 6 11 31.5t17 54.5t17 54.5t11 31.5q3 9 12 31t19.5 47
t20.5 46.5t14 30.5v14q-14 0 -30 -0.5t-30.5 0.5t-24 4.5t-9.5 11.5h-7t-17.5 -0.5t-21.5 -1t-19 -0.5q-2 0 -9.5 1.5t-16 3t-16.5 1.5t-12 -4q1 -10 6.5 -12.5t11.5 -6t11 -11.5t5 -28v-345zM654 7l23 89l28 218q1 19 5.5 49.5t10 62.5t10 61.5t4.5 46.5q0 13 -7 18
t-14.5 8t-13.5 7t-4 16q5 19 14 40.5t20 43t24 41t27 35.5l15 15t17 7q8 0 15.5 -4.5t13.5 -11t11 -13.5t8 -13q6 -11 18 -15.5t21 -8.5q7 -3 13.5 -19.5t10.5 -35.5t5 -35t-2 -17q-14 -7 -21.5 -18t-7.5 -35l-83 -446q-8 -23 -8.5 -60t-10.5 -83q-2 -11 -4 -18.5t-11 -7.5
t-16 4.5t-16 4.5t-19.5 2.5t-21 6t-20 6.5t-15.5 4q-13 2 -11 8t2 21z" />
    <glyph glyph-name="seven" unicode="7" horiz-adv-x="1203" 
d="M-77 -36q0 7 1 14.5t10 8.5h65h65q9 0 23 1t27.5 2.5t23.5 3t11 2.5l8 8q0 2 1 21t1 36v19q0 117 -10.5 232.5t-10.5 232.5v9q0 8 0.5 16t0.5 15v10q6 22 21 26.5t30 4.5q5 0 10 0.5t10 1.5q8 2 6.5 17t-3.5 45l-137 -6q0 13 5 32t21 25q19 0 59.5 0.5t91.5 1.5t107 2
t107 2t91.5 1.5t60.5 0.5h22q8 0 19 1.5t18 -3.5q12 -8 16.5 -19.5t6.5 -27.5q-4 -2 -2.5 -6.5t1.5 -7.5t-5 -4.5t-22 2.5q-12 -1 -34 -2.5t-37.5 -3t-17.5 -1.5l6 -27l-197 -464q-3 -3 -7 -4.5t-9 -6t-10 -14.5t-10 -29q-6 -20 -15.5 -41.5t-18.5 -39.5t-15.5 -32t-6.5 -19
h148q7 0 11 -4t6 -10t2.5 -12t0.5 -10q0 -2 -0.5 -6.5t-0.5 -6.5q-14 -1 -44 -2t-68.5 -2t-80.5 -2t-80 -1.5t-68.5 -1t-44.5 -0.5h-73h-75q-9 2 -10 9.5t-1 12.5zM298 286l10 -27q9 6 16.5 15t13.5 19.5t10 20.5t7 18q3 6 11 31.5t17 54.5t17 54.5t11 31.5q3 9 12 31
t19.5 47t20.5 46.5t14 30.5v14q-14 0 -30 -0.5t-30.5 0.5t-24 4.5t-9.5 11.5h-7t-17.5 -0.5t-21.5 -1t-19 -0.5q-2 0 -9.5 1.5t-16 3t-16.5 1.5t-12 -4q1 -10 6.5 -12.5t11.5 -6t11 -11.5t5 -28v-345zM633 1l23 89l28 218q1 19 5.5 49.5t10 62.5t10 61.5t4.5 46.5
q0 13 -7 18t-14.5 8t-13.5 7t-4 16q5 19 14 40.5t20 43t24 41t27 35.5l15 15t17 7q8 0 15.5 -4.5t13.5 -11t11 -13.5t8 -13q6 -11 18 -15.5t21 -8.5q7 -3 13.5 -19.5t10.5 -35.5t5 -35t-2 -17q-14 -7 -21.5 -18t-7.5 -35l-83 -446q-8 -23 -8.5 -60t-10.5 -83
q-2 -11 -4 -18.5t-11 -7.5t-16 4.5t-16 4.5t-19.5 2.5t-21 6t-20 6.5t-15.5 4q-13 2 -11 8t2 21zM890 -3l23 89l28 218q1 19 5.5 49.5t10 62.5t10 61.5t4.5 46.5q0 13 -7 18t-14.5 8t-13.5 7t-4 16q5 19 14 40.5t20 43t24 41t27 35.5l15 15t17 7q8 0 15.5 -4.5t13.5 -11
t11 -13.5t8 -13q6 -11 18 -15.5t21 -8.5q7 -3 13.5 -19.5t10.5 -35.5t5 -35t-2 -17q-14 -7 -21.5 -18t-7.5 -35l-83 -446q-8 -23 -8.5 -60t-10.5 -83q-2 -11 -4 -18.5t-11 -7.5t-16 4.5t-16 4.5t-19.5 2.5t-21 6t-20 6.5t-15.5 4q-13 2 -11 8t2 21z" />
    <glyph glyph-name="eight" unicode="8" horiz-adv-x="1458" 
d="M-79 -37q0 7 1 14.5t10 8.5h65h65q9 0 23 1t27.5 2.5t23.5 3t11 2.5l8 8q0 2 1 21t1 36v19q0 117 -10.5 232.5t-10.5 232.5v9q0 8 0.5 16t0.5 15v10q6 22 21 26.5t30 4.5q5 0 10 0.5t10 1.5q8 2 6.5 17t-3.5 45l-137 -6q0 13 5 32t21 25q19 0 59.5 0.5t91.5 1.5t107 2
t107 2t91.5 1.5t60.5 0.5h22q8 0 19 1.5t18 -3.5q12 -8 16.5 -19.5t6.5 -27.5q-4 -2 -2.5 -6.5t1.5 -7.5t-5 -4.5t-22 2.5q-12 -1 -34 -2.5t-37.5 -3t-17.5 -1.5l6 -27l-197 -464q-3 -3 -7 -4.5t-9 -6t-10 -14.5t-10 -29q-6 -20 -15.5 -41.5t-18.5 -39.5t-15.5 -32t-6.5 -19
h148q7 0 11 -4t6 -10t2.5 -12t0.5 -10q0 -2 -0.5 -6.5t-0.5 -6.5q-14 -1 -44 -2t-68.5 -2t-80.5 -2t-80 -1.5t-68.5 -1t-44.5 -0.5h-73h-75q-9 2 -10 9.5t-1 12.5zM296 285l10 -27q9 6 16.5 15t13.5 19.5t10 20.5t7 18q3 6 11 31.5t17 54.5t17 54.5t11 31.5q3 9 12 31
t19.5 47t20.5 46.5t14 30.5v14q-14 0 -30 -0.5t-30.5 0.5t-24 4.5t-9.5 11.5h-7t-17.5 -0.5t-21.5 -1t-19 -0.5q-2 0 -9.5 1.5t-16 3t-16.5 1.5t-12 -4q1 -10 6.5 -12.5t11.5 -6t11 -11.5t5 -28v-345zM633 -1l23 89l28 218q1 19 5.5 49.5t10 62.5t10 61.5t4.5 46.5
q0 13 -7 18t-14.5 8t-13.5 7t-4 16q5 19 14 40.5t20 43t24 41t27 35.5l15 15t17 7q8 0 15.5 -4.5t13.5 -11t11 -13.5t8 -13q6 -11 18 -15.5t21 -8.5q7 -3 13.5 -19.5t10.5 -35.5t5 -35t-2 -17q-14 -7 -21.5 -18t-7.5 -35l-83 -446q-8 -23 -8.5 -60t-10.5 -83
q-2 -11 -4 -18.5t-11 -7.5t-16 4.5t-16 4.5t-19.5 2.5t-21 6t-20 6.5t-15.5 4q-13 2 -11 8t2 21zM893 -3l23 89l28 218q1 19 5.5 49.5t10 62.5t10 61.5t4.5 46.5q0 13 -7 18t-14.5 8t-13.5 7t-4 16q5 19 14 40.5t20 43t24 41t27 35.5l15 15t17 7q8 0 15.5 -4.5t13.5 -11
t11 -13.5t8 -13q6 -11 18 -15.5t21 -8.5q7 -3 13.5 -19.5t10.5 -35.5t5 -35t-2 -17q-14 -7 -21.5 -18t-7.5 -35l-83 -446q-8 -23 -8.5 -60t-10.5 -83q-2 -11 -4 -18.5t-11 -7.5t-16 4.5t-16 4.5t-19.5 2.5t-21 6t-20 6.5t-15.5 4q-13 2 -11 8t2 21zM1150 -3l28 87l23 220
q1 19 6 49.5t10.5 62.5t9.5 61.5t4 46.5q0 13 -7 18t-14.5 8t-13.5 7t-4 16q5 19 14 40.5t20 43t24 41t27 35.5l15 15t17 7q8 0 15.5 -4.5t13.5 -11t11 -13.5t8 -13q6 -11 18 -15.5t21 -8.5q7 -3 13.5 -19.5t10.5 -35.5t5 -35t-2 -17q-14 -7 -21.5 -18t-7.5 -35l-75 -446
q-8 -23 -12.5 -60t-14.5 -83q-2 -11 -4 -18.5t-11 -7.5t-16 4.5t-16 4.5t-19.5 2.5t-21 6t-20 6.5t-15.5 4q-13 2 -11 8t2 21z" />
    <glyph glyph-name="four" unicode="4" horiz-adv-x="1022" 
d="M196 -35q0 7 1 14.5t10 8.5h65h65q9 0 23 1t27.5 2.5t23.5 3t11 2.5l8 8q0 2 1 21t1 36v19q0 117 -10.5 232.5t-10.5 232.5v9q0 8 0.5 16t0.5 15v10q6 22 21 26.5t30 4.5q5 0 10 0.5t10 1.5q8 2 6.5 17t-3.5 45l-137 -6q0 13 5 32t21 25q19 0 59.5 0.5t91.5 1.5t107 2
t107 2t91.5 1.5t60.5 0.5h22q8 0 19 1.5t18 -3.5q12 -8 16.5 -19.5t6.5 -27.5q-4 -2 -2.5 -6.5t1.5 -7.5t-5 -4.5t-22 2.5q-12 -1 -34 -2.5t-37.5 -3t-17.5 -1.5l6 -27l-197 -464q-3 -3 -7 -4.5t-9 -6t-10 -14.5t-10 -29q-6 -20 -15.5 -41.5t-18.5 -39.5t-15.5 -32t-6.5 -19
h148q7 0 11 -4t6 -10t2.5 -12t0.5 -10q0 -2 -0.5 -6.5t-0.5 -6.5q-14 -1 -44 -2t-68.5 -2t-80.5 -2t-80 -1.5t-68.5 -1t-44.5 -0.5h-73h-75q-9 2 -10 9.5t-1 12.5zM571 287l10 -27q9 6 16.5 15t13.5 19.5t10 20.5t7 18q3 6 11 31.5t17 54.5t17 54.5t11 31.5q3 9 12 31
t19.5 47t20.5 46.5t14 30.5v14q-14 0 -30 -0.5t-30.5 0.5t-24 4.5t-9.5 11.5h-7t-17.5 -0.5t-21.5 -1t-19 -0.5q-2 0 -9.5 1.5t-16 3t-16.5 1.5t-12 -4q1 -10 6.5 -12.5t11.5 -6t11 -11.5t5 -28v-345zM8 11l23 89l28 218q-2 19 2.5 49.5t10.5 62.5t11.5 61.5t5.5 46.5
q0 13 -7 18t-14.5 8t-13.5 7t-4 16q5 19 14 40.5t20 43t24 41t27 35.5l15 15t17 7q8 0 15.5 -4.5t13.5 -11t11 -13.5t8 -13q6 -11 18 -15.5t21 -8.5q7 -3 13.5 -19.5t10.5 -35.5t5 -35t-2 -17q-14 -7 -21.5 -18t-7.5 -35l-83 -446q-8 -23 -8.5 -60t-10.5 -83
q-2 -11 -4 -18.5t-11 -7.5t-16 4.5t-16 4.5t-19.5 2.5t-21 6t-20 6.5t-15.5 4q-13 2 -11 8t2 21z" />
    <glyph glyph-name="nine" unicode="9" horiz-adv-x="779" 
d="M264 28q0 21 5.5 39t13 37t16.5 41t16 51q6 26 14 49.5t14.5 42t11 32t4.5 18.5q0 4 -5.5 22.5t-11.5 44t-12 54.5t-8 54q-2 19 -7.5 37.5t-11.5 36.5t-10.5 34t-4.5 31q0 4 -3 13t-5.5 19t-3 17.5t4.5 8.5q18 4 33.5 10.5t29 13t26.5 11.5t26 5q19 0 30.5 -1t17.5 -9
t7 -25.5t0 -50.5q0 -6 1 -14t2.5 -16t3.5 -14.5t2 -9.5l21 -103q1 -4 2 -18.5t2 -31t2 -31.5t1 -20l9 7q1 0 4.5 6t8 14t8.5 16l6 12q2 5 7.5 22.5t12 38t13 40t9.5 29.5q3 11 9 23.5t11.5 24.5t10 22.5t5.5 16.5q4 21 5.5 32.5t4 18t7.5 11t15 11.5t15 12t7 7.5t3.5 4
t5.5 3.5l26 9q6 -5 15.5 -4.5t17.5 -0.5t13 -7.5t1 -24.5q0 -46 -5.5 -93.5t-24.5 -98.5q-17 -46 -30 -94t-22 -90l-8 -10q-4 -5 1.5 -28.5t15.5 -62t21 -91t18 -115.5v-31q-3 -3 -4.5 -8t-7 -10.5t-18.5 -12t-38 -13.5q-7 -2 -11.5 -7t-8.5 -10.5t-8 -10t-10 -4.5h-20
t-13.5 4t-10 13.5t-9.5 29.5q-1 4 -2.5 20t-3 35t-3 35t-2.5 21q-3 19 -8 47.5t-10 55t-9 45.5t-5 19h-11q-1 0 -5.5 -9t-9.5 -24t-10.5 -34.5t-9.5 -40.5q-3 -18 -10.5 -39.5t-21.5 -38.5q-11 -13 -18.5 -37.5t-14 -48.5t-12.5 -41.5t-13 -16.5q-17 2 -28 -5t-18.5 -15
t-13.5 -12.5t-13 1.5l-39 34zM-9 15l23 89l28 218q1 19 6 49.5t10.5 62.5t9.5 61.5t4 46.5q0 13 -7 18t-14.5 8t-13.5 7t-4 16q5 19 14 40.5t20 43t24 41t27 35.5l15 15t17 7q8 0 15.5 -4.5t13.5 -11t11 -13.5t8 -13q6 -11 18 -15.5t21 -8.5q7 -3 13.5 -19.5t10.5 -35.5
t5 -35t-2 -17q-14 -7 -21.5 -18t-7.5 -35l-68 -445q-8 -23 -16 -60.5t-18 -83.5q-2 -11 -4 -18.5t-11 -7.5t-16 4.5t-16 4.5t-19.5 2.5t-21 6t-20 6.5t-15.5 4q-13 2 -11 8t2 21z" />
    <glyph glyph-name="W" unicode="W" horiz-adv-x="786" 
d="M782 713q-3 -19 -6 -46t-6.5 -53.5t-9 -46t-13.5 -23.5t-11 -13.5t-4 -21.5l-2 -24t-5 -19l-80 -340q-5 -8 -12 -29t-15 -42.5t-18 -37.5t-22 -15l-76 7q-17 10 -25.5 12.5t-13 1.5t-8 -4t-10.5 -3q-17 0 -29.5 23t-21.5 53t-16 57.5t-13 36.5q0 1 -2 1.5t-3 0.5
q-3 0 -5 -2q-14 -25 -32 -56t-36.5 -58t-34.5 -44.5t-25 -15.5q-11 2 -21.5 -5t-21 -19t-20.5 -26t-19 -26h-10q-2 0 -9.5 -1.5t-15.5 -3.5t-15.5 -3.5t-9.5 -1.5q-18 0 -34 12t-31 20q-9 4 -12.5 19t-4.5 33.5t0 37.5t1 31q0 7 1.5 29t4.5 45.5t6.5 42.5t8.5 20l84 341
q-2 7 1.5 31t11.5 52q4 11 9 21.5t10 19.5q6 10 11 17t13 9q6 1 8.5 8.5t3.5 15t2.5 11.5t5.5 -2q1 -1 11 -5.5t18.5 -7.5t9.5 -4q7 -3 15.5 -3.5t17.5 -0.5t17.5 -1.5t13.5 -7.5l27 -29q0 -28 -8 -58.5t-13 -59.5q-3 -15 -5 -26t-4 -25l-5.5 -14t-13.5 -34.5t-18 -44.5
t-18 -45t-13.5 -35t-5.5 -15q1 0 9 13.5t20 34t25.5 44t25 44t20 33.5t9.5 13q11 -5 27.5 -6.5t29.5 -6.5q12 -5 30.5 -7.5t26.5 -4.5q17 -13 24 -29t12 -42q5 -28 15.5 -55t19.5 -49q7 12 13 33t11 42t10 39t10 25q6 7 10 22.5t6.5 33t4.5 34t4 27.5q7 33 14 62t13.5 51
t13.5 35.5t15 13.5q15 0 24.5 6t17.5 13t17 13t23 8l72 -38z" />
    <glyph glyph-name="a" unicode="a" horiz-adv-x="357" 
d="M182 181q4 -19 4 -41q0 -31 -3.5 -61t-0.5 -62q0 -10 16 -13.5t30 -3.5h16h23q9 13 12.5 27t13.5 29q3 6 6 22t5.5 36t3.5 41t0 36l74 286q0 2 1 14t0 20q-3 21 -6 46t-10 50t-17.5 48.5t-28.5 41.5q-12 1 -15.5 4t-4 6t-1 7t-6.5 9q-23 0 -41 -12t-29 -32
q-7 -12 -22.5 -46t-32.5 -72t-32 -71t-21 -44q-6 -12 -14.5 -26.5t-11.5 -27.5q-2 -8 1.5 -15.5t5.5 -17.5l-105 -193q0 -2 1.5 -7l3 -10t2.5 -10t1 -8q0 -1 -2.5 -6t-6 -11t-6 -11.5t-2.5 -6.5q0 -12 8.5 -19t19.5 -18q5 -5 14.5 -0.5t14.5 1.5q16 -9 25.5 2.5t17.5 31.5
t18 42.5t28 34.5q9 6 22.5 8t30.5 2zM229 420v-4q0 -6 -1 -21t-3.5 -32.5t-7.5 -35t-12 -28.5q-6 -10 -14 -7t-19 3l8 40q1 2 7 15t16 32t17 29q2 7 9 9z" />
    <glyph glyph-name="b" unicode="b" horiz-adv-x="552" 
d="M0 -18q0 22 9.5 42t14.5 43q5 20 10.5 42.5t10.5 44.5q-2 1 -4.5 4t-0.5 5q0 2 4.5 11.5t4.5 11.5q6 16 5.5 31t4.5 32q5 16 13.5 46t16.5 60.5t15 55.5t9 32q4 11 9 30t9.5 40t7.5 40.5t3 30.5h-118l-5.5 3t-8.5 5q-6 11 -3 21t3 19q0 6 -6 12q16 10 37 10.5t37 11.5v-5
q2 1 5.5 3t5.5 2q23 9 56 15.5t67.5 11.5t67.5 7.5t56 2.5q7 0 17 -7t13 -15h49q3 -10 15.5 -11t20.5 -4q45 -16 61.5 -49.5t16.5 -78.5q0 -44 -8 -70.5t-23 -46t-37 -38t-50 -47.5q4 -5 10 -8t11.5 -7t10.5 -10t8 -18q7 -20 11 -46t4 -37q0 -3 -0.5 -6.5t-0.5 -4.5t-5 -8.5
t-5 -10.5v-6v-11v-12v-6q0 -1 -2.5 -5t-5 -8.5l-5 -9t-2.5 -5.5v-4q-8 -10 -28.5 -30t-44 -40t-47 -35t-37.5 -15q-28 -5 -60 -4t-66 4l-3.5 2t-5.5 3l-2 2.5t-3 2.5h-2q-4 0 -12 -4t-16.5 -9t-15.5 -10t-8 -8q-1 -1 2 -5l3 -4q-1 -2 -6 -4.5t-5 -4.5q-2 -6 -2 -9
q-13 0 -24 -5t-25 -5q-22 0 -27 15.5t-5 31.5zM247 264q-3 -1 -10 -18.5t-13.5 -39t-11.5 -41t-5 -25.5q0 -2 0.5 -7t0.5 -7q12 6 30.5 16t36 23t30.5 27.5t13 30.5q0 23 -12.5 32t-36.5 9h-22zM63 241q-2 0 -2 -2q0 -4 2 -2q10 2 0 4zM385 540v7q0 9 -2.5 20.5t-10.5 11.5
h-55q-4 0 -12 -19.5t-16 -44t-14 -47t-6 -27.5q6 0 23 10t36 23t34.5 25t18.5 17q1 1 2 9t2 13v2z" />
    <glyph glyph-name="c" unicode="c" horiz-adv-x="465" 
d="M8 302l-8 11q-1 17 0 27t3 24q8 15 11.5 32.5t1.5 29.5l26 60q0 1 3.5 6.5t8 11.5t8.5 11t5 7q2 3 7 7t11 8t11 8t8 7q2 3 7.5 10.5t12 15t12 14t8.5 9.5q9 10 21.5 14.5t25.5 14.5q16 13 28 23.5t24.5 18t27.5 12.5t36 8t34.5 7t36.5 4q7 0 13 -7t10.5 -17t7 -20
t2.5 -16q0 -18 -16.5 -29t-38.5 -19l-44 -16t-32 -21v-5q0 -1 -2 -6t-4.5 -11.5t-4.5 -11.5t-3 -6q-2 -5 -6.5 -5.5t-11 -1t-14 -3.5t-14.5 -12q-9 -11 -20 -27t-21 -32t-17.5 -28.5t-9.5 -15.5q-3 -5 0.5 -24.5t10.5 -45t14 -52.5t11 -46q3 -13 12.5 -23t22.5 -17.5
t26.5 -13t22.5 -9.5q6 -3 10 -7l8 -8t9.5 -7t14.5 -3q1 1 0.5 5.5t0.5 4.5q10 -2 33.5 -11.5t48.5 -22t44 -24.5t19 -19q0 -8 -2.5 -12.5t-2.5 -10.5q0 -4 5 -4t5 -5q0 -18 -17 -28.5t-33 -13.5h-8q-5 0 -11.5 -0.5t-12.5 -0.5h-8q-49 0 -88 9t-80 34q-3 3 -16 12t-27.5 19
t-27 19t-16.5 12q-27 19 -45 41.5t-30.5 48.5t-21 54t-15.5 58z" />
    <glyph glyph-name="d" unicode="d" horiz-adv-x="434" 
d="M-20 155q0 -3 -1 -15t-2.5 -24.5t-3 -22.5l-1.5 -10l29 -19l165 7q2 0 13.5 4.5t16.5 6.5q25 10 56 22.5t61.5 28.5t56.5 36.5t42 47.5q10 19 21.5 40t21 43.5t16 46.5t6.5 48q-1 66 -22.5 130t-63.5 119q-9 12 -25.5 19t-27.5 17q-6 5 -8.5 9t-4 7t-4 6t-8.5 8
q-8 5 -19.5 13.5t-22.5 18.5q-8 8 -18.5 12t-18.5 10q-29 13 -62 18t-86 8q-9 1 -12.5 -5.5t-4 -15.5t0.5 -19t1 -16q0 -5 6.5 -9.5t16 -8t19.5 -6t18 -5.5q3 -1 2.5 -4.5t-2.5 -7.5t-4 -9t-2 -9q-3 -5 -9 -22.5t-14 -36.5l-12 -38q-3 -9 -5.5 -14.5t-3.5 -8.5q-1 -5 -4 -12
t-6 -21q-8 -29 -21.5 -76.5t-28 -98t-27 -95.5t-19.5 -69zM122 243q17 43 30.5 84t25.5 81t23.5 79.5t25.5 80.5q2 5 4.5 12t3.5 8l1.5 0.5t2.5 0.5q2 0 4 -0.5l2 -0.5q3 -2 10.5 -4.5t9.5 -3.5l71 -121l-50 -173q-5 -14 -25 -26.5t-45.5 -22.5t-51.5 -16.5t-41 -7.5z" />
    <glyph glyph-name="e" unicode="e" horiz-adv-x="470" 
d="M-7 61l1 3q8 3 13.5 8t5.5 7l-6 19q3 13 8.5 40.5t13 62t15.5 72t15.5 71.5t14 61t10.5 40q1 3 3 19.5t5 35.5t5.5 35t4.5 19q3 9 11.5 30.5t16.5 44t12.5 40.5t-1.5 18q-1 0 -4.5 2t-7 4.5t-5 5.5t1.5 5q9 8 42.5 11t72.5 3t73 -1t44 -2l24 -2q19 -1 38.5 -7t30.5 -23
q10 -15 20 -20t16 -13q13 -21 12 -47q0 -1 -0.5 -2l-0.5 -1q-2 -2 -6 -7t-8.5 -10t-9 -9.5t-7.5 -5.5q-5 -1 -11.5 1t-13 3.5t-12.5 1t-9 -4.5q-3 -5 -21.5 -7t-44 -2.5t-53.5 -0.5q-27 0 -48 -1q-2 -5 -5 -18t-7 -30t-8.5 -35.5t-8.5 -33.5l-1 -5l4 -4t5 -4q13 -1 31 -3
t36.5 -5t36.5 -7t31 -10q5 -3 6 -9.5t1 -14.5q-1 -5 -0.5 -11.5t3.5 -10.5q8 -12 13.5 -18t15.5 -17q3 -4 -5.5 -8.5t-20 -8.5t-22.5 -6.5t-13 -2.5q-9 -1 -31.5 -2.5t-48 -3t-48 -3t-31.5 -1.5l-14 -19l-31 -123q0 -10 16 -12.5t39 -2.5t48 1t43 -2q4 0 10.5 -7t13.5 -16.5
t12.5 -19.5t7.5 -16v-5q-1 -12 -12 -24.5t-33 -15.5q-28 -5 -70 -7t-81 -2t-67.5 0.5t-29.5 0.5q-17 2 -32 13.5t-14 31.5z" />
    <glyph glyph-name="f" unicode="f" horiz-adv-x="330" 
d="M-25 -11q2 -2 9.5 -4t8.5 -2t6.5 6.5t12 13.5t12 10t7.5 -3l1 -16l14 19q8 17 16 36.5t15 36.5t12.5 29t8.5 15l20 26l65 201l12 13l115 6q6 5 15.5 7t18 3.5t15 3.5t7.5 7q-11 3 -18 9t-12.5 12t-12 11t-16.5 6q-11 1 -27 2t-30 2.5t-23 4.5t-7 7q6 9 14 25t15.5 33.5
t14 34t8.5 28.5q1 5 -1.5 7.5t-5.5 4t-6 3.5t-3 6v3q11 -1 30 1.5t34 2.5q20 0 29 7t11 13l143 7q6 7 17.5 10t23 5.5t20 7t10.5 15.5h-9q-10 0 -14 8q-3 4 -3.5 10.5t-0.5 12.5t0.5 10.5l0.5 4.5q-29 5 -45.5 4t-38.5 -1h-84t-96.5 -1.5t-97 -4t-84.5 -6.5
q-9 -5 -9.5 -17.5t-4.5 -21.5q-38 -6 -49.5 -13t-9.5 -10h68q1 -7 -4 -10.5t-11 -5t-11.5 -2t-5.5 -3.5q0 -8 10 -11.5t22.5 -4t23 0.5t11.5 1l6 -7l-5.5 -13.5t-12.5 -31t-13.5 -34.5t-9.5 -24l-3.5 -7t-5.5 -10.5t-5.5 -10.5t-3.5 -8q-2 -2 -7 -8.5t-6 -6.5h-52
q0 -7 -7.5 -8.5t-15.5 -1.5q-9 0 -16.5 -1t-9.5 -6l30 -12q-4 -8 -4.5 -21t1.5 -13q18 -7 34 -7q17 0 20 -8q-2 -4 -8.5 -26.5t-15 -48.5t-15.5 -47.5t-8 -23.5q-3 -6 -2 -13t3.5 -13t5 -11t2.5 -8q0 -6 -4.5 -22t-10.5 -37t-12.5 -43.5t-10 -41.5t-3.5 -31t8 -11z" />
    <glyph glyph-name="g" unicode="g" horiz-adv-x="561" 
d="M122 96q-12 11 -25.5 25t-26 30t-22.5 33t-15 34q-1 2 -1.5 9t-1.5 14.5t-4 14t-8 7.5v39q-7 4 -10 13q0 48 6.5 78.5t16.5 51.5t20 36t18 33q0 -5 7 6t16.5 26t18.5 28t13 13q1 0 8.5 5.5t16 12.5t15.5 13.5t9 7.5q2 2 8.5 9t8.5 9q3 3 7.5 7t9.5 8t8.5 7t4.5 4
q9 5 24.5 6.5t26.5 6.5q1 0 4 4t5 4q2 1 12 1q14 0 30 1t31 8q13 0 26 -2t12 -13l82 4q0 -2 6.5 -4t15 -4t16.5 -4.5t11 -4.5q9 -7 14.5 -18.5t9.5 -25t5.5 -27.5t1.5 -26q0 -1 -2 -5.5t-5 -9.5t-5 -9l-2 -4q0 -2 2 -2t4.5 0.5t4.5 0.5t2 -2q0 -20 -7.5 -39t-5.5 -42
q-5 -5 -6.5 -9.5t-3 -10t-5.5 -11.5t-13 -13q-16 -13 -34.5 -26t-19.5 -23q-17 6 -26 13.5t-16.5 17t-16 21t-24.5 25.5q-8 7 -1.5 18.5t18 25t22.5 27t11 24.5q0 16 -10 32t-28 16q-2 0 -11 -2t-11 -2h-7h-12h-11h-8q-2 0 -6 -2l-6 -3q-1 0 -2.5 -2.5l-1.5 -2.5
q-4 0 -15.5 -2t-14.5 -2q0 -2 -5 -13t-11 -23.5t-11 -22.5l-5 -10q-5 0 -12 -4.5t-10 -4.5q-7 0 -16 -10.5t-17 -24t-14.5 -26.5l-9.5 -19q-5 -11 -13 -18t-8 -21q0 -4 2 -19t5.5 -31.5t8 -29t9.5 -11.5q0 -3 -0.5 -10t-0.5 -15t0.5 -15t0.5 -9t3.5 -8.5t5.5 -9.5
q0 -1 3.5 -2t4.5 -2q1 -3 0 -4l42 -22v-5q13 0 24 -4.5t21.5 -10t22 -9.5t26.5 -2q3 -5 9 -8.5t13 -5.5t13 -3t8 -1q4 10 11.5 15.5t14.5 10.5t12 11.5t5 19.5q0 8 -5 12.5t-11.5 7.5t-14 5.5t-12.5 6.5h-128q-22 11 -26 15t0.5 5.5t12 2.5t7.5 6q0 1 -4.5 2t-9.5 2.5
t-9.5 3.5t-4.5 6v35q5 2 10 6t7 9h102l8 3h73q14 17 31 19.5t37 2.5q24 0 32.5 -1t10 -5.5t0.5 -14.5t4 -28q0 -1 1.5 -2t2.5 -2q3 -14 5 -25t3 -21t1 -20v-21q0 -23 -3.5 -45.5t-5.5 -47.5q-5 -2 -5 -7t-3 -10q-2 -3 -6.5 -9t-10.5 -13t-11 -13.5t-6 -8.5q-2 0 -4.5 -1.5
t-4.5 -2.5q-1 -1 -6.5 -7t-12 -13t-12 -12.5t-7.5 -6.5q-11 -8 -30.5 -10.5t-36.5 -2.5h-20q-48 0 -88 14.5t-80 41.5q-14 11 -28.5 24t-31.5 20zM12 389q3 0 3 -4t-3 -4t-3 4t3 4z" />
    <glyph glyph-name="h" unicode="h" horiz-adv-x="478" 
d="M224 40q3 14 8 35t3 37l6 64q2 23 7 36t5 32q-8 0 -12.5 3t-10.5 1q-16 -5 -26 -20t-13 -29q-9 -31 -18 -59.5t-16 -66.5q-3 -14 -8.5 -19t-12.5 -5.5t-15 -0.5q-7 0 -14 -4q-8 -4 -12.5 -9t-9 -9.5t-10.5 -8t-16 -3.5q-35 0 -47 8.5t-12 40.5v30q5 23 14 64.5t19 86.5
t19.5 85.5t15.5 63.5l12.5 50t18 70t20 66.5t19.5 39.5l67 14q2 0 12 3.5t19 4t14 -4.5t-2 -22q2 -12 7.5 -13t11.5 -0.5t10.5 -1.5t4.5 -16q0 -12 -2.5 -25.5t-5 -26.5t-4.5 -25.5t-2 -22.5q1 -17 -5.5 -41t-12.5 -45t-8 -34t9 -7q3 0 9.5 -1t13 -0.5t12.5 3.5t8 10l87 353
l58 19q3 1 6 -3.5t6 -10.5l5.5 -11t5.5 -4q5 1 9 1.5t7 0.5q11 0 15.5 -11.5t-0.5 -42.5q-2 -12 1 -18.5t7.5 -11t8.5 -9.5t4 -13q0 -13 -3 -28t-7 -30.5t-8.5 -30.5t-7.5 -28l-12 -53q-21 -86 -36.5 -144t-26.5 -101t-18.5 -75.5t-13.5 -66.5l5 -38q1 -5 -2.5 -8.5t-8 -6
t-8.5 -4t-4 -2.5q-7 -17 -14.5 -23.5t-12.5 -6.5h-6q-1 1 -2 6.5t-1.5 11.5t-1.5 11t-2 6l-12 4t-11 0q-10 -4 -15 -5.5t-17 6.5q-5 4 -12 5t-14 4t-12 9.5t-6 20.5z" />
    <glyph glyph-name="i" unicode="i" horiz-adv-x="217" 
d="M-13 45q1 -8 6.5 -6.5t10.5 1.5q1 0 3 -2q3 -11 12 -15.5t17 4.5q4 0 5.5 -8t3.5 -7l47 17q7 9 9 28t11 47q3 10 7 15.5t8.5 9t8 7.5t5.5 10q15 75 24.5 159.5t21.5 159.5q8 45 21 99t22 108q8 9 5 13.5t-11 7.5t-18 5.5t-16 7.5l7 73q1 8 -3 8.5t-10 -2t-11.5 -6
t-7.5 -3.5q-16 -2 -19 -7t-8 -19q-18 -51 -34 -105.5t-30 -108.5t-27.5 -105.5t-28.5 -97.5q-2 -7 -3.5 -17t-2 -20.5t0.5 -20.5t3 -17l-34 -179q1 -2 0.5 -10t-0.5 -10z" />
    <glyph glyph-name="j" unicode="j" horiz-adv-x="505" 
d="M397 57q0 2 5.5 18t3.5 30q-4 14 -1.5 29t5.5 23.5t4 9.5q0 21 2 34.5t5 26t7 26.5t9 34q4 33 8 59.5t7 51t5 49t3 54.5q15 51 22 78t10.5 43t5.5 25.5t7 25.5q0 1 -2 6.5t-4.5 11.5t-5 11t-2.5 6q-1 1 -15.5 6t-32 11t-32.5 10.5t-17 4.5q-40 0 -59.5 -3t-25 -10.5
t-1.5 -19t10 -29t10.5 -41t-0.5 -54.5q-20 -107 -37 -207.5t-36 -209.5l-21 -23q0 -5 -3 -6t-7 0.5t-8.5 3.5t-8.5 2q-20 0 -33 7t-34 22q-8 20 -8 43t1.5 42t1 31.5t-8.5 12.5l-111 2q-2 0 -5 -7t-4 -12v-5q0 -5 -0.5 -11t-0.5 -14v-11q0 -42 12 -75.5t33.5 -61t51.5 -50
t65 -43.5q18 -4 33 -7t29.5 -5.5t29 -3.5t32.5 -1q25 7 45 12.5t33.5 12t21.5 15.5t9 23z" />
    <glyph glyph-name="k" unicode="k" horiz-adv-x="577" 
d="M0 -24q0 19 3 41.5t4 40.5q1 22 6 43.5t11.5 43t13 42t10.5 41.5q3 12 13 42t21.5 63.5t21 63t12.5 40.5q-3 23 3.5 51.5t15.5 58.5t17 59.5t8 53.5l-140 -15q-3 -1 -3 9v23t-1.5 24t-8.5 12l301 49h10q5 0 12 1.5t13 2t9 -0.5t1 -5q-14 -30 -28 -69t-24 -69
q-1 -5 -4.5 -19.5t-8 -31t-9 -31.5t-6.5 -21v-4v-5q12 21 32 55t43 69t46 65t43 45q12 -9 24 -10t22.5 1t19 5t13.5 3h12q17 0 32 -12t15 -29q0 -14 -13 -29.5t-29 -33.5t-30.5 -38t-17.5 -44l-138 -199l58 -266q1 -2 1.5 -8t1 -12.5t0 -12.5t-2.5 -7l-31 -28
q7 -9 -2.5 -20.5t-24 -18.5t-30.5 -7q-15 0 -20 15q-10 24 -19 42.5t-16 34t-12 30.5t-8 32q0 3 -4.5 17.5t-10 31t-10 30.5t-5.5 17q2 19 1.5 28.5t-2.5 14.5t-4 7.5t-2 5.5q-5 -36 -15 -72.5t-22 -72.5t-23 -72t-18 -73q-24 3 -34 -3.5t-15.5 -16.5t-10 -18.5t-16.5 -8.5
q-20 0 -35.5 3t-15.5 26z" />
    <glyph glyph-name="l" unicode="l" horiz-adv-x="392" 
d="M-2 41q0 1 3 6.5t6 11.5t6 11.5t3 6.5q8 26 10 58t-1 58q27 110 51 217.5t42 219.5q2 9 3 18t2 17q1 5 -2 9.5t-5.5 8.5t-4 7.5t2.5 6.5q15 10 41.5 14t54 4.5t52 -1t34.5 -1.5q0 -8 2 -12.5t3 -9t-1.5 -12.5t-11.5 -24q-19 -32 -30.5 -71t-17.5 -79q-8 -48 -14.5 -95
t-14.5 -93t-21 -92t-35 -91q4 -12 20 -13.5t36.5 2t42.5 8t39 4.5q6 -2 14.5 -9t17 -16.5t15 -18.5t7.5 -14t5 -11.5t8.5 -13.5t7 -13.5t0.5 -9.5q-5 -6 -21 -10.5t-35 -7t-37 -4t-26 -2.5q-12 -2 -37 -4.5t-52 -5t-50 -4.5t-31 -3q-2 0 -11.5 -0.5t-14.5 -0.5
q-9 0 -19.5 4.5t-19 12t-13.5 17t-3 20.5z" />
    <glyph glyph-name="m" unicode="m" horiz-adv-x="672" 
d="M-3 71q3 17 7.5 41t10.5 47.5t13 41t15 21.5q8 3 11 11.5t4 19t1.5 20.5t4.5 17l74 300q5 7 9 25t9 37t12 32.5t18 12.5l71 -6q16 -9 23.5 -11t12 -1t7.5 3.5t10 2.5q10 0 19 -13.5t16.5 -34t14 -45t11.5 -46.5t9.5 -39t8.5 -22q0 -1 2 -1.5t3 -0.5q2 0 4 2
q13 22 32 56.5t38 66.5t35.5 54t25.5 21q10 -2 20 4t20 16.5t19 23t17 22.5h10q4 0 14 8t15 8q17 0 31.5 -11t28.5 -18q9 -4 12 -17t4 -29t0 -32.5t-1 -27.5q0 -6 -1.5 -25.5t-4 -40.5t-6 -37.5t-7.5 -17.5l-78 -301q2 -5 -1 -26t-11 -46q-4 -10 -8.5 -19t-9.5 -17
q-5 -9 -13.5 -15.5t-16.5 -7.5q-6 -1 -10.5 -12l-9 -22t-8 -18.5t-7.5 -1.5q-1 1 -4 11.5t-5.5 19t-2.5 9.5q-6 3 -14.5 3.5t-16.5 0.5t-15.5 1t-12.5 6l-26 26q0 24 7.5 51t12.5 52q3 14 4.5 23.5t3.5 21.5l5 12.5t13 30.5t16.5 39.5t16.5 40t13 31l5 12.5q-1 0 -9 -11.5
t-19.5 -28.5t-24.5 -37t-24.5 -37t-19.5 -28.5t-9 -10.5q-10 4 -23 2t-25 2q-11 4 -28.5 6.5l-24.5 3.5q-15 12 -21.5 26.5t-11.5 37.5q-5 24 -15 48t-18 43q-7 -11 -12.5 -29.5t-10 -37t-9 -34t-9.5 -21.5q-6 -7 -9.5 -20.5t-5.5 -29t-4 -30.5t-4 -24q-7 -29 -13 -54.5
t-12.5 -45t-13 -31t-13.5 -11.5q-14 0 -22.5 -5.5t-16 -11.5t-16 -12t-21.5 -7l-67 34z" />
    <glyph glyph-name="n" unicode="n" horiz-adv-x="607" 
d="M3 62q0 45 10 89t21 92q5 24 10 52t10.5 56t10 53.5t9.5 43.5q4 14 10.5 37.5t14.5 51.5t17.5 58t18.5 58t17.5 50.5t15.5 35.5q37 -2 62 -9t39 -18l19 15q6 4 13.5 -2.5t15 -17t14 -21.5t11.5 -15q2 -7 7 -24t11 -36.5t11.5 -36.5t7.5 -24q3 -7 7.5 -23t9.5 -34.5
t8.5 -36.5t3.5 -29q2 11 4.5 35t5.5 54t8 62.5t12 61t17.5 49.5t25.5 29q9 4 21 6.5t24.5 5t25 6t22.5 10.5q8 1 17 -1t14.5 -7t6 -12.5t-9.5 -16.5q0 -1 0.5 -9.5t0.5 -13.5q0 -30 -9 -50.5t-20 -47.5v-10l-9 -46q-9 -54 -22.5 -107.5t-24.5 -107.5q-4 -19 -8.5 -27
t-9.5 -14.5t-10 -14.5t-9 -27l-18 -103q-6 -23 -12 -34.5t-15 -20.5t-22.5 -18.5t-34.5 -28.5h-7q-4 0 -6 -1q-8 -2 -12 10t-7.5 32t-7 46t-9.5 52q-4 17 -8.5 36.5t-9 37.5t-9 33t-7.5 24q-8 44 -23 83.5t-32 74.5q-2 -5 -3.5 -0.5t-3 9.5t-3.5 7t-5 -7q-8 -25 -16 -64
t-15 -76.5t-11.5 -67t-3.5 -35.5q-7 -53 -18 -91.5t-26 -73.5q0 -1 -2.5 -10.5t-7.5 -11.5q-1 0 -6.5 0.5t-12 1.5t-12 1.5t-5.5 -0.5q-1 -1 -5 -5.5t-9 -9t-9 -8.5t-5 -4l-55 21q-5 8 -4.5 13.5t0.5 15.5z" />
    <glyph glyph-name="o" unicode="o" horiz-adv-x="683" 
d="M53 155q-4 19 -16.5 34t-21.5 31q-3 4 -2.5 10.5l1 13t-0.5 12.5t-8 8l-9 45l-5 3v14q0 27 6.5 51.5t7.5 52.5q8 2 9 14t3 20q37 62 89.5 113.5t110.5 92.5q4 3 16 6t25.5 6.5t24 7t11.5 6.5h94q5 -8 15 -12t21 -6t21.5 -4.5t18.5 -8.5q33 -25 66.5 -58t63.5 -68
l1.5 -2.5t3.5 -2.5q26 -19 39.5 -44t24.5 -52l0.5 -1.5t1.5 -2.5q3 -26 10.5 -49.5t7.5 -49.5q0 -65 -32.5 -124.5t-85.5 -103.5q-1 0 -18 -11t-38.5 -25t-43 -26.5t-32.5 -15.5q-26 -11 -49 -19t-59 -8t-74.5 14.5t-75 37t-68.5 49.5t-54 52zM149 321q1 -2 5 -6.5t5 -5.5
q2 -7 8 -16.5t7 -11.5v-7v-12v-13v-7q2 -13 9 -20t16.5 -12t19.5 -9t17 -11q4 -5 12 -7.5t17.5 -5t19 -4t16.5 -4.5h5t9 -0.5t10 -0.5h8q11 0 36.5 5.5t52 15t47.5 21.5t24 25q0 2 0.5 9t1 15.5t1 16t0.5 10.5q10 5 10.5 15.5t9.5 14.5q6 19 7 31t1 27v25q-14 20 -23.5 36.5
t-20 30t-24.5 25t-36 21.5q-6 3 -7.5 5t-2 4.5l-1 5t-3.5 7.5q-3 4 -9.5 5.5t-14 3t-14 4t-10.5 7.5h-75q-2 -8 -8.5 -10t-9.5 -10q-2 -2 -6 -11t-6 -11q-13 3 -31.5 -13t-36 -38t-30 -43.5t-12.5 -29.5q0 -14 5 -25t5 -22v-12l-2 -3.5t-2 -4.5zM473 665q2 0 2 -5
q0 -4 -2 -4q-5 0 -5 4q0 5 5 5z" />
    <glyph glyph-name="p" unicode="p" horiz-adv-x="499" 
d="M17 46l-1 17q-12 9 -15.5 15t-3 11.5t3 9.5t2.5 9q0 20 8 47t19 56q2 6 7.5 10.5t6.5 10.5q2 21 8 36.5t12 27t11 18.5t5 12t4.5 23t12 43t16.5 54.5t17.5 56t15 48t9.5 31.5l5 39q-1 1 -9.5 0.5t-20.5 -0.5q-11 0 -23 1.5t-19 3.5l6.5 5t12.5 8.5t7 4.5
q-26 6 -27.5 12.5t13 12.5t39.5 11.5t52 9.5t52 6.5t38 2.5h12q9 0 18.5 0.5t18.5 0.5h12q1 -5 10.5 -8.5t22 -6t24 -4.5t16.5 -3q27 -9 48.5 -23t35.5 -36v-10q0 -5 0.5 -12t0.5 -15v-8q0 -26 -3 -52.5t-15 -52.5q-17 -17 -36 -37.5t-32 -38.5q-7 -9 -21.5 -18.5t-33 -17.5
t-38 -13.5t-35.5 -8.5q-16 -4 -35 -4h-37q0 -2 -4.5 -1.5t-8 0t-2.5 -4.5t12 -16l-73 -208q-2 -35 -10 -55.5t-14 -12.5q-13 15 -23.5 8t-19.5 -20.5t-16.5 -25t-13.5 -4.5q-3 3 -5.5 12.5t-4.5 6.5q-6 -14 -16 -21t-10 -5zM349 608h-19q-6 0 -11.5 4.5t-10.5 1.5l-47 -145
q11 0 21 5t21 11t23 11.5t27 7.5q11 1 17 8t9 16t3.5 19t0.5 16q0 15 -6.5 30t-27.5 15z" />
    <glyph glyph-name="q" unicode="q" horiz-adv-x="682" 
d="M0 365v18l9 8q3 52 26 97.5t54 84.5q2 2 15 11t30.5 20t37.5 24t37.5 24t29.5 18.5t14 8.5q10 2 20 2.5t13 12.5h43q0 2 2 4l3 3h3h1q6 -1 16 -2.5l20 -3t17.5 -2.5t8.5 -1q21 -5 42 -16t42 -24t41 -27t38 -25q1 0 1 -2t-1 -3q8 -2 16.5 -7.5t16 -12t14 -13.5t9.5 -11
q-2 -4 4 -15t14 -23.5t15 -24.5t9 -17q2 -2 3 -15.5t1 -15.5q1 -4 6 -17.5t9 -23.5t5 -12q0 -2 0.5 -11.5t0.5 -12.5q0 -12 -4 -27.5l-8 -31t-7.5 -30t-1.5 -23.5l-32 -62l-6.5 -6.5t-9 -9.5t-8.5 -9.5t-5 -5.5l-1 -2q0 -11 12 -20t26.5 -19.5t26.5 -25t12 -36.5v-2
l-7.5 -7.5t-7.5 -5.5q-12 0 -33.5 6.5t-44 14l-40.5 13.5t-21 5q-4 0 -10.5 -5t-13 -11t-12 -12t-6.5 -7q-29 -24 -66 -34t-75 -10q-28 0 -58.5 4t-54.5 18q-23 12 -38.5 28.5t-32.5 33.5q-33 31 -57.5 54t-42 47.5t-29.5 54.5t-21 77q-2 15 -5.5 23t-3.5 25zM154 315
q0 -7 8.5 -24t19.5 -35.5t22 -34t17 -19.5q10 -8 25 -14t22 -17q5 -8 8 -17t20 -9h71q2 5 10.5 8t11.5 5q-10 2 -11 7.5t-8 10.5q0 3 -0.5 11t-1 17t-1 17.5t-0.5 12.5v3v5q2 2 10.5 3.5t11.5 0.5q2 0 12 -4.5t12 -4.5h5h9h8h6q2 0 9.5 -6.5t9.5 -6.5q1 0 4 -0.5t5 -0.5
q11 0 18.5 9t13.5 21t11.5 24t13.5 18q0 4 0.5 15t0.5 14q0 21 -4.5 47t-22.5 42v54q-6 1 -9 6.5t-3 10.5q-2 1 -7.5 3.5t-11.5 5.5l-11 5.5l-7 3.5q-8 3 -20 9t-25 11.5t-24.5 10t-17.5 4.5q-10 0 -16 -1t-12 -1.5t-13 -1t-17 0.5l-53 -27q0 1 -2 1h-1t-2 -1
q-4 -2 -12 -4.5t-10 -4.5q-31 -14 -39 -34.5t-5 -53.5q-7 -5 -12.5 -18.5t-9 -29t-5 -29.5t-1.5 -18zM277 166q4 0 4 -4t-4 -4q-3 0 -3 4t3 4z" />
    <glyph glyph-name="r" unicode="r" horiz-adv-x="497" 
d="M-11 -26q0 -3 2 -1.5t4 5t5 7t6 3.5q5 0 5 -7q0 -8 6 -8t9 5.5t5.5 13t6 15t12.5 13.5q5 6 16.5 6.5t15.5 0.5q5 0 7.5 1t4.5 6q1 3 5 16t8.5 30t9.5 34t9 28q3 10 8 22t10 27q4 7 7 15.5t7 18.5q8 20 17 39t14 30q5 10 10 18t18 9q2 0 5.5 -0.5t4.5 -0.5
q8 -13 13.5 -40.5t10.5 -62.5l10.5 -73.5t14.5 -74.5l9 -76q3 -7 4 -14t3.5 -12.5t6.5 -9t12 -3.5q6 0 12 -1t13 3t14.5 16t15.5 39q4 12 9 14t9.5 0.5t7.5 -4.5t3 0q-1 5 1.5 17t1.5 30q-1 14 -3.5 30.5t-2.5 21.5q-1 24 -5.5 54.5t-10.5 62.5t-13 62.5t-12 54.5
q4 9 18.5 18.5t34.5 22t41.5 28.5t39.5 38.5t29 52t10 69.5q-1 15 -6 25t-6 25t-13 24t-29.5 14.5t-37 8t-34.5 3.5q-29 1 -35.5 2.5t-4.5 4t7.5 6t2.5 9.5l-13 -1q-11 0 -23 -1t-23 -1l-13 -1q-60 -2 -124 -8t-124 -11q-5 -2 -13 -8.5t-1 -10.5q7 -3 7 -5q0 -5 -5.5 -7
t-5.5 -4q-1 -9 18.5 -10t43 -2t43.5 -5t21 -19q0 -2 -0.5 -4.5t-0.5 -3.5l-158 -490q-1 -2 0 -2l0.5 -2t0 -7.5t-2.5 -17.5l-25 -104zM346 612q29 1 39.5 -7.5t11.5 -32.5q1 -20 -15 -39.5t-39.5 -36t-50.5 -30t-49 -21.5q1 2 4 12.5t7.5 23t4.5 13.5q16 37 21 60.5
t10.5 36.5t16.5 17.5t39 4.5v-1z" />
    <glyph glyph-name="s" unicode="s" horiz-adv-x="498" 
d="M143 25q-26 6 -50 15.5t-44 23t-34.5 30.5t-20.5 38q-4 11 -11.5 23t-10.5 23v2q1 6 18.5 11.5t39.5 10t42 9t27 10.5q9 7 16 -5t16.5 -30.5t23 -36t34.5 -21.5q10 -2 27 -2.5t27 -0.5q6 6 14 6q9 0 16.5 0.5t14 6t9.5 23.5v3q0 1 -0.5 7t-1.5 12.5t-1.5 12t-1.5 5.5
q-24 19 -42.5 34.5t-35 31t-33 32.5t-35.5 39q-9 0 -14.5 5t-8.5 12t-6 14.5t-7 12.5q-1 2 -4.5 7t-7.5 11t-7.5 11.5t-5.5 8.5q-23 19 -34.5 38.5t-15 39.5t-2 41.5t5.5 45.5q2 11 7 26.5t13 30.5t18.5 27.5t23.5 18.5q38 17 89 21.5t95 -2.5q12 -2 25.5 -7.5t28 -11.5
t28.5 -12t27 -9q1 -5 13.5 -10.5t28 -14t30.5 -19t21 -23.5q3 -6 7.5 -14l9 -16t7 -16t1.5 -15q-2 -8 -19 -13t-39 -8.5t-42.5 -4.5t-28.5 0q-5 1 -13.5 2.5t-11.5 6.5l-31 55q-4 5 -15.5 7t-16.5 3q-16 3 -33 5t-31.5 0t-24.5 -10t-13 -24q-1 -7 -4 -15t-4 -16t0.5 -16
t9.5 -15q20 -19 36 -33.5t30.5 -28t29 -27.5t31.5 -32q9 -11 17 -18.5t20 -17.5q8 -7 18.5 -17t21 -20.5t20 -21t15.5 -18.5q6 -11 13 -25t18 -22q-2 -24 -5 -56.5t-7 -55.5q-6 -35 -24.5 -53.5t-46 -27t-62.5 -10t-73 -2.5h-7h-13h-14t-11 1l-12 2q-2 0 -7 -3t-6 -3
q-8 -1 -11 5.5t-5 14.5z" />
    <glyph glyph-name="u" unicode="u" horiz-adv-x="526" 
d="M141 11q-18 0 -33 2t-20 -14q-4 -11 -18 -5.5t-29 19.5t-27 33.5t-12 36.5v10q1 9 3.5 27t5.5 36.5t5.5 33.5t3.5 18q3 13 8.5 38.5t13 57.5t15.5 67t15.5 66.5t14 57t9.5 38.5l3 10.5t6.5 22.5t6.5 22.5t3 11.5q0 3 -0.5 11t-2 17t-4 16.5t-6.5 8.5q7 3 10.5 3.5t5 1.5
t2.5 4t4 10q12 -2 30 1.5t36 8.5t32.5 9t20.5 4h39q0 -27 -4.5 -47t-11 -37.5t-13.5 -36.5t-11 -45q-6 -37 -13.5 -78t-14.5 -79q-5 -21 -11.5 -44t-13 -47t-11 -48t-4.5 -46q0 -4 -0.5 -10t0.5 -11t4 -9t10 -4q4 0 8 3t8 7t8.5 8t9.5 5q14 5 23 5.5t20 0.5q10 31 16.5 65.5
t11.5 70l10 71t12 69.5q1 3 5.5 15t9 25.5t8.5 25t4 14.5q1 8 2.5 28.5t3 43t2.5 42.5t1 29q2 19 12.5 23.5t24.5 4.5q2 0 9 -0.5t9 -1.5l117 -100q-14 -10 -22.5 -32.5t-14 -49.5t-9.5 -54.5t-7 -47.5q-2 -9 -7.5 -31.5t-13 -51.5t-16 -61.5t-16 -62t-13 -52.5t-7.5 -33
q-1 -29 -4 -54t-14.5 -43t-33.5 -28t-61 -10q-16 0 -29.5 1.5t-26.5 3t-27 3t-30 1.5z" />
    <glyph glyph-name="v" unicode="v" horiz-adv-x="545" 
d="M8 654q0 8 3.5 11t9 4.5t11.5 3t11 6.5q11 14 22 18t22 4h32q19 -11 29.5 -33t16.5 -48t9.5 -52.5t8.5 -44.5q3 -9 11.5 -40.5t19 -68t20 -71t13.5 -50.5q1 -4 4 -14t5 -13q7 2 9 9q3 7 10.5 39t17.5 76t22 93t24 91t22.5 70t17.5 30q17 -3 36 0t37.5 8t35.5 10t30 5
q11 0 17 -8.5t6 -18.5q0 -1 -0.5 -2.5t-0.5 -2.5q-25 -78 -46 -154t-43.5 -151t-49 -149.5t-62.5 -148.5q-6 -13 -10.5 -29t-17.5 -24q-41 6 -64.5 -1.5t-28.5 -7.5q-16 0 -30.5 6.5t-22.5 20.5q-11 19 -12 39t-7 40q-17 65 -32.5 129t-31.5 129q-8 34 -20.5 70t-24.5 73.5
t-20.5 74.5t-8.5 72z" />
    <glyph glyph-name="w" unicode="w" horiz-adv-x="740" 
d="M740 683q-3 -18 -5.5 -43t-6 -49t-8.5 -42.5t-13 -21.5q-8 -4 -10.5 -13t-3.5 -20t-2 -21.5t-5 -17.5l-75 -314q-5 -8 -11.5 -27.5t-14.5 -39t-17.5 -34.5t-20.5 -14l-72 7q-16 9 -24 11.5t-12.5 1t-7.5 -4t-10 -2.5q-16 0 -27.5 21.5t-20.5 49t-15.5 53t-12.5 33.5
q0 2 -4 2q-3 0 -5 -2q-13 -23 -30.5 -52t-34.5 -53.5t-32 -41t-24 -14.5q-10 2 -20.5 -4.5t-20.5 -17t-19.5 -24t-17.5 -24.5h-9q-2 0 -9 -1.5t-15 -3t-15 -3t-9 -1.5q-17 0 -32 11t-29 19q-9 4 -12 17.5t-4 30.5t0 34.5t1 28.5q0 7 1.5 27t4 42t6 39.5t7.5 18.5l80 315
q-2 6 1 28t11 48q4 11 8.5 20.5t9.5 17.5q6 9 10.5 15.5t12.5 8.5q6 1 8 8t3.5 14t2.5 11t5 -2q1 -1 10.5 -5.5t17.5 -7.5t9 -3q6 -3 14.5 -3.5t16.5 -0.5q9 0 16.5 -1.5t12.5 -6.5l26 -27q0 -26 -7.5 -54.5t-12.5 -54.5q-3 -14 -4.5 -23.5t-3.5 -23.5l-5 -13t-13 -32
t-17 -41.5t-17 -41.5t-13 -32t-5 -14q1 0 8.5 12.5t18.5 31.5t24 41t24 40.5t19 31t9 11.5q10 -4 26 -5.5t28 -6.5q11 -4 28.5 -6.5t25.5 -4.5q16 -11 22.5 -26t11.5 -39q5 -26 15 -51l18 -45q7 11 12.5 30.5t10 39t9.5 36t10 22.5q6 7 9.5 21t6 30t4 31.5t3.5 25.5
q7 30 13.5 57.5t13 47.5t13 32.5t13.5 12.5q14 0 23 5.5t16.5 12t16 12t22.5 7.5l68 -35z" />
    <glyph glyph-name="x" unicode="x" horiz-adv-x="455" 
d="M-1 63q0 18 5 33t12.5 31t16 34.5t15.5 43.5q6 22 13.5 42t14 36t10.5 26.5t4 14.5t-5 19.5t-11.5 37.5t-12 46.5t-7.5 45.5q-1 16 -6 31.5t-11 30t-10.5 28.5t-4.5 26q0 3 -3 11t-5.5 16t-2.5 14q0 7 5 8q17 3 31.5 9t28 12t25.5 10t25 4q19 0 30 -1t16.5 -8t6.5 -22.5
t0 -43.5q-1 -9 3 -24t5 -20l21 -86q1 -4 2 -16.5t2 -26.5t2 -26.5t1 -16.5l8 7q1 0 4.5 5t7.5 11.5t7.5 13t5.5 9.5q2 4 7.5 19t12 32t13 33.5t9.5 24.5q7 19 19.5 41t14.5 33q4 18 5.5 27.5t4 15.5t7 9.5t15.5 9.5q10 6 14 10l6 6l3.5 3.5t5.5 2.5l25 9q6 -4 15 -4t17 -1
t12 -6t1 -20q0 -40 -5 -80.5t-22 -82.5q-17 -39 -30 -79.5t-21 -75.5l-8 -7q-4 -5 1.5 -25t15 -53t20 -77t16.5 -96v-26q-3 -3 -4.5 -7.5t-6.5 -9.5t-17.5 -10.5t-36.5 -11.5q-7 -1 -11.5 -5.5t-8 -9t-7.5 -8t-10 -3.5h-19q-7 0 -12.5 3t-10 11t-9.5 24q-1 4 -2.5 18
t-3 29.5t-3 29.5t-2.5 18l-7.5 40t-9 46t-8.5 38t-5 16h-11q-1 0 -5 -7.5t-9.5 -20.5t-11 -29t-8.5 -34q-3 -14 -10 -32.5t-20 -31.5q-10 -11 -17.5 -31.5t-14 -41t-12.5 -35.5t-13 -15q-17 2 -27 -4t-16.5 -12.5t-12.5 -10.5t-13 1l-38 29z" />
    <glyph glyph-name="y" unicode="y" horiz-adv-x="451" 
d="M32 -19l-33 33l66 197q1 4 4 12.5t7 19.5t8 23t8 23q4 12 9 23t7 16q-2 2 -6.5 9.5t-9.5 16.5t-8.5 17t-3.5 11q-8 58 -16 98.5t-15 73t-11 63t-4 69.5q0 5 0.5 19t0.5 19q0 1 4 2.5t8.5 3.5t8.5 3.5t4 2.5q0 9 8 15t17 8.5t16 0t6 -9.5q10 -15 16 -19t17 -3l52 -150
q3 -15 6.5 -15.5t10 9t16.5 27.5t27 40q6 8 13 20.5t15 24.5t18.5 21t22.5 10l34 2l35 2l51 -5q8 -1 9 -11t1 -13q0 -2 -0.5 -7t-0.5 -7q-7 -7 -18 -23t-25 -37t-29 -44t-28 -44.5t-23.5 -39t-15.5 -26.5q-11 -17 -24.5 -43.5t-27.5 -54.5q-5 -11 -14 -19.5t-10 -11.5
l-82 -299q-2 -7 -6 -16t-9.5 -15.5t-13 -9t-16.5 3.5q-11 8 -19 6t-14.5 -7.5t-12 -11.5t-11.5 -6z" />
    <glyph glyph-name="z" unicode="z" horiz-adv-x="515" 
d="M30 -2l-20 27q11 22 9.5 50t-0.5 51q6 20 22 46t38.5 56.5t48 64t50.5 68.5t46.5 69.5t34.5 66.5q18 24 18 30t-7 4t-17 -6.5t-12 -1.5l-133 5q-3 0 -6.5 -2t-5.5 -0.5t-2 8.5q0 8 5 28l20 90q1 5 -2.5 13t-6.5 15.5t-1.5 12.5t13.5 5q7 0 26.5 0.5t46 1t55.5 0.5h56h46
h27t18 -0.5t23.5 -4.5t23.5 -12.5t18 -23.5q4 -9 11.5 -17.5t14.5 -17t12.5 -17t5.5 -18.5q0 -8 -18 -20t-41 -26q-6 -3 -16.5 -19.5t-22 -37t-22 -39.5t-14.5 -27q-9 -15 -21 -37.5t-26 -45t-29.5 -42.5t-30.5 -30l-98 -147l148 -1q11 0 20 -8t20 -22q6 -8 13 -14t13 -11.5
t9.5 -11.5t2.5 -12l-2 -18q-2 -2 -10 -7t-11 -7q-30 -6 -65 -9.5t-71.5 -5t-72.5 -2t-67 -1.5q-8 0 -16 -0.5t-16 -0.5z" />
    <glyph glyph-name="germandbls" unicode="&#xdf;" horiz-adv-x="1105" 
d="M244 352v1v16v7v8v4v7q-4 4 -4.5 11.5t-2.5 11.5t-3.5 10t-6.5 17q-5 9 -6 14t-1 7l-3 3.5t-6 6.5q-5 5 -7.5 7t-3.5 3l-8 -2q0 -2 -2 -4.5t-3 -4.5l1 -3q0 -5 -0.5 -7.5t-0.5 -5.5q0 -8 1 -9h3q1 -2 1.5 -3.5t2.5 -6.5q2 -4 3.5 -5.5l2.5 -2.5q1 -3 2.5 -7t2.5 -10
q2 -5 3.5 -8.5t1.5 -7.5v-4q1 -2 3 -8.5t2 -8.5q0 -12 -1 -28.5t-4 -33.5v-5q0 1 -2 -7v-10l-4 3v-9v-6q0 -3 -5 -11q0 -11 -5 -11q0 -11 -8 -19q-5 7 -8 14t-6 13q-2 8 -5 14.5t-5 11.5l-1 2l1 4q-5 9 -6 14.5t-2 10.5l1 3l-6 2q-1 3 -4 14.5t-10 31.5q-5 17 -10 26t-7 13
l-2 3l-4 6q-2 0 -4 1.5l-2 1.5q-2 0 -3 -1.5t-2 -2.5v-1l-1 -3q-2 -2 -2 -9l-3 -5v-1q0 -5 -1 -7.5t-2 -4.5l1 -5q-4 -13 -4 -20v-19l2 -3l-2 -27l3 -2q0 -5 -3 -9q5 -8 0 -19v-6q0 -3 -1 -6.5t-1 -7.5v-5q-1 -6 -2.5 -16.5t-1.5 -27.5v-3v-3v-1q-3 -11 -4 -19.5t-1 -19.5
q0 -7 5 -15l3 -1h-2l3 -4q2 0 2 -4h6l3 -3v3l4 1l3 3q1 3 1 10q0 6 1 7v2l2 3q3 21 3 28v7l2 5v8v2q5 29 6 47t1 25v4v11l7 -12q9 -27 10 -27q0 -2 2 -8t8 -18q5 -8 7 -13.5t2 -6.5q4 -7 7 -14t7 -15q8 -18 15 -19l1 -1q12 0 14 1q4 13 7 16q0 7 15 37v2q2 4 3.5 10t2.5 17
l3 2v4h2q0 3 0.5 6.5t2.5 8.5q1 9 3.5 12l2.5 3q0 5 -5 10q4 7 4.5 11t1.5 6v1v3l-1 7q1 3 1.5 7.5t2.5 5.5zM305 329l-2 -8q0 -3 -2 -5h-1h-4l-1 5l-2 4l-4 -3l-3 3l-6 -4h-2q-2 0 -16 -14l-2 -3l-1 -3l-1 -4l-6 -2q-2 -4 -4.5 -7t-3.5 -7q-6 -6 -6 -15v-2
q-2 -6 -2.5 -12.5t-0.5 -12.5q0 -9 3 -23.5t11 -31.5q8 -4 13.5 -7t10.5 -5l4 1l1 -1h2l1 1h4q1 -1 3.5 -3t4.5 -2q7 0 10 5q1 -1 10 -1h4v3h2l7 -3h6l1 3q8 2 13 3.5t11 6.5h1l3 4h1q9 12 13 12q0 1 3 6.5t3 7.5q1 3 2.5 9t1.5 14q0 3 -0.5 8.5t-2.5 12.5l-1 1l1 1
q-3 9 -5 14l-4 10q0 2 -2.5 6t-4.5 9q-3 5 -5.5 9t-3.5 7h-4q-4 5 -20 13q-7 4 -12.5 7.5t-7.5 6.5l-2 -3l-4 3l-2 -9h-2l-2 -5h4zM349 273q0 -3 9 -13q2 -5 4 -9.5t2 -8.5q0 -6 -21 -15l-10.5 -3.5t-11.5 -4.5q-9 0 -12 -3l-2 2q-6 -3 -11 -3h-1l-2 3h-1t-3 1q-12 0 -16 4
l-2 -4q-12 7 -12 13v7l5.5 11t2.5 10q8 0 13 11l5 -3q1 0 1.5 2.5t2.5 2.5h4q0 -4 2 -5.5t4 -3.5l4 3q0 1 1.5 1.5t2.5 2.5l2 2q-2 0 -2 4v1v3l2 7l-4 16v3h1l1 -3v-3q6 -3 10 -3.5t8 -0.5l2.5 -2t4.5 -6q1 -2 4.5 -4.5t6.5 -2.5q1 -5 6 -9zM480 358q-2 -1 -7 -1h-2h-5h-1
q-2 0 -5 -4q-9 6 -14 0l-1 -1q-5 0 -6.5 -0.5t-3.5 -2.5l-3 -1h-2q-5 -7 -6.5 -10l-1.5 -3q-3 -10 -5 -17.5t-3 -13.5v-1q-5 -8 -5 -15h-1q1 -10 -2 -11h3q-1 1 -1 3l-2 6v8v2q0 1 3 4q-2 5 -2.5 8.5t-2.5 4.5q-2 5 -2.5 7t-0.5 4v1q-5 8 -5 14l-6 16l-1 2q-2 4 -4.5 6.5
l-3.5 3.5q-5 -2 -9 -8.5t-4 -10.5q0 -6 1.5 -11.5t3.5 -14.5q5 -20 5 -25l3 -3q0 -7 1 -8l-1 -5q1 -1 1 -4q0 -10 3.5 -28t10.5 -47h3q0 -9 5 -17l2 2l4 -2q13 7 16 28l-2 2h-1l3 -2l3 2l-3.5 3.5t-1.5 4.5v2q3 9 4 12.5l1 3.5q0 10 1 11q0 3 1 6.5t2 9.5q5 10 5 14v2
q0 3 -1 4l1 2v2q0 2 2 2v3l11 11q2 0 4.5 1.5t4.5 2.5h3v1h3h5h2l2 -1l10 -1q1 1 -2 1.5t-2 0.5q12 0 17.5 10.5t6 20.5t-3.5 14t-10 -10v5q-4 2 -5.5 3t-5.5 2zM969 340v3h-2v-4zM962 330l-2 1l-2 -2v-4zM951 321h-3v-5h-1h1zM1036 195q-2 2 -3.5 4.5t-5.5 3.5q4 9 -7 22
q-6 2 -9 5t-8 3v-1q-3 6 -10 9q-6 0 -14 5l-7 3t-20 10q-26 13 -37 13q-10 0 -10 2q6 11 10 11q0 2 3 4q0 4 3 8t6 7q7 12 12 12q0 4 0.5 4.5l1.5 1.5q2 2 4 2.5l2 0.5h1q3 4 4 7t3 7q4 0 5 4q2 5 6 5q8 0 12.5 5.5t10.5 8.5l2 4q2 0 3.5 2t5.5 5q2 2 4 5t4 3l3 8l-2 -1v1v3
q2 2 2 5q0 6 1 8q12 10 12 12q2 5 3 10t3 6q2 0 2 8q0 5 -3.5 14t-8.5 25q-9 0 -10 -12q-2 -3 -5 -5.5t-8 -7.5q-3 -5 -5.5 -8t-3.5 -6q-2 -1 -7.5 -6.5t-18.5 -16.5q-18 -23 -21 -30q-1 0 -3.5 -3t-8.5 -11q-14 -14 -14 -17q-5 -4 -10.5 -10.5t-5.5 -9.5l-2 2l-1 6
q0 10 1 12q1 5 1.5 8.5t0.5 5.5v10v6q3 31 3 58q0 6 -3 6l2 6q-4 7 -6 13t-6 10v1l-5 8l-8 -3q0 -4 -2 -6l1 -8l-1 -6l1 -2q-1 -5 -2 -13.5t-1 -21.5l1 -1.5t1 -5.5q-2 -7 -2.5 -11t-0.5 -7v-4v-7q0 -9 -1 -12q-2 -8 -2 -10q0 -7 -1 -9q0 -7 -1 -9l1 -5l-1 -5q0 -1 0.5 -3
t0.5 -4t-0.5 -2.5t-0.5 -3.5v-2v-3v-3q0 -3 -0.5 -6.5t-0.5 -7.5l1 -2v-9v-1q0 -5 -0.5 -7t-0.5 -7q0 -7 -0.5 -17.5t-3.5 -25.5q-1 -16 -2 -27.5t-1 -18.5q0 -5 1 -12t1 -11v-4l5 -2q0 -5 0.5 -4t2.5 -4l3 -3l3 -9q5 14 6.5 23t5.5 12q-2 8 -2 10l4 7l-2 2l2 17v4v6l1 1
q5 -5 10 -8.5t10 -7.5l9 5q2 -2 4 -2q5 0 7 -1q2 -3 5 -4l3 -1l3 3q1 -2 3.5 -3.5t4.5 -3.5q9 0 11 -2l1 1l2 -5h10l3 -2q3 0 4 -1.5t5 -3.5q8 -5 9 -5q8 0 23 -7v-3q4 0 4 3l4 -5v2l3 -2v5l7 1l2 4v6v6zM916 278q-1 -1 -1 -4v3zM1008 388l-3 -4l-2 -1v1v3l2 1h3zM780 366
q-2 -8 -2 -9q0 -3 -2 -5l-4 1l-2 5l-3 3l-3 -3l-3 4l-5 -4h-4q-2 0 -15 -15v-3l-4 -1l-1 -5l-6 -4q-2 -4 -3.5 -5.5t-3.5 -5.5q-5 -8 -5 -16v-2q-3 -11 -3 -27q0 -8 2.5 -22.5t10.5 -31.5q8 -3 14.5 -5.5t9.5 -6.5l4 2v-2h5v2h2q4 -4 11 -4q5 0 8 4q6 -2 9 -2h5l2 4v1l6 -5
h8l1 5q11 2 23 10h1l3 3h1q10 12 13 12q0 1 2.5 5t2.5 7q5 13 5 23q0 5 -0.5 11t-2.5 11l-2 1l2 4q-3 8 -5 12.5t-2 9.5q-4 4 -9 14q-3 5 -5 9t-4 7h-3q-7 10 -20 15q-17 6 -22 14l-1 -3l-2 3l-3 -10l-3 -1l-2 -3zM824 308q0 -1 3 -4.5t6 -8.5q1 -5 2.5 -9.5t1.5 -7.5
q0 -11 -19 -18q-7 0 -12 -2t-10 -3q-11 0 -12 -3l-2 2q-8 -4 -10 -4h-2l-3 2q-4 0 -5 3q-13 0 -15 1l-2 -1q-13 7 -13 9v10q4 6 6.5 10.5t4.5 9.5q7 0 10 13h3l2 -4q2 2 3.5 3t2.5 2h3q0 -4 2.5 -5.5t2.5 -2.5l4 1q0 2 2.5 3.5t3.5 2.5h2q-2 2 -2 3v2v1l-1 3l3 9
q-2 3 -3 6.5t-3 7.5l2 1l1 2l1 -3v-2v-2q5 -1 9 -2.5t8 -1.5q1 -1 1.5 -2.5t5.5 -3.5q3 -4 10 -4q2 -5 8 -13zM421 418q27 21 45.5 54t30 70.5t16.5 74.5t5 66q9 -23 15.5 -53.5t9.5 -65t2.5 -71t-5.5 -71.5q33 9 55.5 11t38.5 -2t29.5 -14t28.5 -24q-18 4 -32 9t-30.5 6
t-37.5 -5t-52 -24l-4 -49l29 31q16 18 41 21.5t48.5 -6t40 -32.5t15.5 -59q-3 -34 -18.5 -59t-37.5 -43.5t-48 -32t-50.5 -24.5t-44.5 -21.5t-30 -22.5q-18 -11 -28.5 -30.5t-12.5 -42t6 -45t28 -39.5q11 -15 23 -21.5t25 -9t27 -3.5t29 -5q-26 -7 -50 -4.5t-44.5 11.5
t-36.5 23.5t-27 31.5q-12 19 -14.5 37t0.5 33.5t9.5 27.5t14.5 19q11 14 29.5 25.5t39.5 22t41.5 19.5t34.5 18q40 16 65.5 48.5t33 66t-4.5 60.5t-47 33q-32 2 -49 -10.5t-37 -37.5q-6 -8 -15.5 -37t-21 -61.5t-24.5 -60.5t-26 -34q21 38 32.5 82t17.5 83t7.5 66t2.5 31
q-14 -4 -42.5 -9t-52.5 -12q0 10 11 18.5t26.5 15t32.5 11t29 6.5l3 57q0 14 2 37.5t2 42.5q0 17 -1 20q-2 -12 -4.5 -32t-12 -42.5t-30 -44.5t-58.5 -37z" />
    <glyph glyph-name="exclam" unicode="!" horiz-adv-x="286" 
d="M242 470q8 46 21 105t23 117q8 10 5 14.5t-11 7.5t-18.5 5.5t-17.5 8.5l8 81q1 8 -3.5 8.5t-10.5 -2.5t-11.5 -6.5t-7.5 -3.5q-17 -2 -21 -7t-9 -21q-18 -55 -35 -120.5t-32.5 -132.5t-30.5 -130t-30 -113q-5 -14 -8 -20t2 -20l-10 -56q7 -4 16.5 -2.5t19.5 3.5t20.5 3.5
t20.5 -1.5q6 -8 14 -8q9 0 17 -4q7 4 15 4h16l4 2q-2 0 -1 0.5t1 1.5q2 8 10 8q5 29 11 64t11.5 72t11 73.5t10.5 68.5zM11 -61q1 -8 7 -6.5l10 2.5q3 0 4 -4q3 -11 12.5 -16t17.5 5q4 0 5.5 -8.5t4.5 -8.5l48 19q8 9 10 29t10 51q3 11 7.5 17t9 10.5t8 8.5t5.5 11
q22 17 14 24t-30 15q-11 -8 -22.5 -3.5t-22.5 3.5q-6 7 -13 8.5t-15 0.5t-16 -3.5t-15 -2.5q-6 -4 -12 -3t-12 3l-20 -116v-21z" />
    <glyph glyph-name="comma" unicode="," horiz-adv-x="251" 
d="M22 -51q1 -8 7 -6.5l10 2.5q3 0 4 -4q3 -11 12.5 -16t17.5 5q4 0 5.5 -8.5t4.5 -8.5l46 41q4 4 7 16.5t6 28t6.5 33.5t7.5 33q3 11 5 14.5t2.5 4.5t1 2.5t2.5 8.5q22 17 20.5 27.5t-23.5 18.5q-5 -4 -10 -2.5t-9.5 4.5t-9 5.5t-10.5 2.5q-6 7 -13 8.5t-15 0.5t-16 -3.5
t-15 -2.5q-6 -4 -12 -3t-12 3l-13 -124l-12 -66z" />
    <glyph glyph-name="period" unicode="." horiz-adv-x="204" 
d="M32 7q1 -8 7 -6.5l10 2.5q3 0 4 -4q3 -11 12.5 -16t17.5 5q4 0 5.5 -8.5t4.5 -8.5l48 19q4 4 5.5 9t2.5 11.5t3 17t6 25.5q3 11 3.5 16t0 7.5t-1.5 5t1 9.5q22 17 14 24t-30 15q-11 -8 -22.5 -3.5t-22.5 3.5q-6 7 -9 10t-5.5 3.5t-6.5 -0.5t-11 -1q-6 -4 -12 -3t-12 3
l-17 -99v-21z" />
    <glyph glyph-name="semicolon" unicode=";" horiz-adv-x="251" 
d="M22 -51q1 -8 7 -6.5l10 2.5q3 0 4 -4q3 -11 12.5 -16t17.5 5q4 0 5.5 -8.5t4.5 -8.5l48 19q4 4 6.5 20t5.5 36t6 41t7 36q3 11 7.5 17t9 10.5t8 8.5t5.5 11q22 17 14 24t-30 15q-11 -8 -22.5 -3.5t-22.5 3.5q-6 7 -13 8.5t-15 0.5t-16 -3.5t-15 -2.5q-6 -4 -12 -3t-12 3
l-25 -169v-21zM54 414q1 -8 7 -6.5l10 2.5q3 0 4 -4q3 -11 12.5 -16t17.5 5q4 0 5.5 -8.5t4.5 -8.5l48 19q4 4 5.5 9t2.5 11.5t3 17t6 25.5q3 11 3.5 16t0 7.5t-1.5 5t1 9.5q22 17 14 24t-30 15q-11 -8 -22.5 -3.5t-22.5 3.5q-6 7 -9 10t-5.5 3.5t-6.5 -0.5t-11 -1
q-6 -4 -12 -3t-12 3l-17 -99v-21z" />
    <glyph glyph-name="semicolon" unicode="&#x37e;" horiz-adv-x="251" 
d="M22 -51q1 -8 7 -6.5l10 2.5q3 0 4 -4q3 -11 12.5 -16t17.5 5q4 0 5.5 -8.5t4.5 -8.5l48 19q4 4 6.5 20t5.5 36t6 41t7 36q3 11 7.5 17t9 10.5t8 8.5t5.5 11q22 17 14 24t-30 15q-11 -8 -22.5 -3.5t-22.5 3.5q-6 7 -13 8.5t-15 0.5t-16 -3.5t-15 -2.5q-6 -4 -12 -3t-12 3
l-25 -169v-21zM54 414q1 -8 7 -6.5l10 2.5q3 0 4 -4q3 -11 12.5 -16t17.5 5q4 0 5.5 -8.5t4.5 -8.5l48 19q4 4 5.5 9t2.5 11.5t3 17t6 25.5q3 11 3.5 16t0 7.5t-1.5 5t1 9.5q22 17 14 24t-30 15q-11 -8 -22.5 -3.5t-22.5 3.5q-6 7 -9 10t-5.5 3.5t-6.5 -0.5t-11 -1
q-6 -4 -12 -3t-12 3l-17 -99v-21z" />
    <glyph glyph-name="colon" unicode=":" horiz-adv-x="204" 
d="M32 7q1 -8 7 -6.5l10 2.5q3 0 4 -4q3 -11 12.5 -16t17.5 5q4 0 5.5 -8.5t4.5 -8.5l48 19q4 4 5.5 9t2.5 11.5t3 17t6 25.5q3 11 3.5 16t0 7.5t-1.5 5t1 9.5q22 17 14 24t-30 15q-11 -8 -22.5 -3.5t-22.5 3.5q-6 7 -9 10t-5.5 3.5t-6.5 -0.5t-11 -1q-6 -4 -12 -3t-12 3
l-17 -99v-21zM58 413q1 -8 7 -6.5l10 2.5q3 0 4 -4q3 -11 12.5 -16t17.5 5q4 0 5.5 -8.5t4.5 -8.5l48 19q4 4 5.5 9t2.5 11.5t3 17t6 25.5q3 11 3.5 16t0 7.5t-1.5 5t1 9.5q22 17 14 24t-30 15q-11 -8 -22.5 -3.5t-22.5 3.5q-6 7 -9 10t-5.5 3.5t-6.5 -0.5t-11 -1
q-6 -4 -12 -3t-12 3l-17 -99v-21z" />
    <glyph glyph-name="parenleft" unicode="(" horiz-adv-x="384" 
d="M-7 113l-8 12q0 8 1.5 30t3.5 47t4 46t4 28q4 7 7 31.5t5 52t2.5 51t-0.5 29.5l58 166q0 1 6.5 16.5t14 33.5t14.5 33.5t8 16.5q5 6 19 14t20 14q2 3 8 10t12.5 14.5t13 13.5t9.5 9q9 9 21.5 13t26.5 13q17 12 29.5 21.5t25.5 16.5t28 11.5t37 5.5q21 2 34.5 5t36.5 2
q7 0 12.5 -7.5t9.5 -17.5t6 -20.5t2 -16.5q-1 -18 -18 -28t-39.5 -17t-45 -13.5t-33.5 -18.5v-5q0 -1 -2.5 -6t-5 -11t-5 -11t-3.5 -6q-2 -5 -7 -5t-11.5 -0.5t-14 -3t-15.5 -10.5q-6 -7 -16 -29.5t-21.5 -52.5t-23.5 -63t-22 -61t-17 -47.5t-9 -21.5q-5 -6 -9.5 -26t-8 -49
t-5 -65t1.5 -72.5t10 -72t21 -64.5q6 -12 16.5 -25.5t22 -26t23.5 -23t21 -15.5q6 -3 10 -7.5t7.5 -8.5t9 -7.5t14.5 -3.5q1 1 0.5 5.5t0.5 4.5q10 -3 33.5 -14t47.5 -24.5t42 -26.5t18 -20q-1 -8 -3.5 -12.5t-3.5 -10.5q0 -4 5 -4t5 -6q-2 -18 -19 -27.5t-34 -11.5l-8 1
h-24l-8 1q-48 2 -87 13.5t-78 38.5q-3 3 -15 13t-26 21t-26 20.5t-16 12.5q-26 20 -42.5 44t-27.5 50.5t-18 55t-12 58.5z" />
    <glyph glyph-name="parenright" unicode=")" horiz-adv-x="448" 
d="M425 79l10 11q1 8 2.5 30t3 46.5t2.5 46t1 28.5q-3 8 -2.5 32.5t2.5 51.5t4.5 50.5t4.5 29.5l-34 173q0 1 -3.5 17t-9 35.5t-10 35.5t-5.5 17q-2 3 -6.5 7.5t-10 9t-10.5 9t-7 7.5q-2 4 -6.5 11.5t-10.5 15.5t-11.5 15.5t-7.5 10.5q-8 11 -20 16.5t-24 16.5
q-15 14 -26 25.5t-23 20t-26 15t-35 10.5q-21 5 -34.5 10t-35.5 7q-7 1 -13.5 -5.5t-12 -16t-9 -19t-4.5 -15.5q-2 -18 14 -30.5t37 -22.5t42.5 -20t30.5 -24v-5q0 -1 1 -6t3 -11.5t4 -11.5t3 -6q1 -5 6 -6t11 -2.5t13.5 -5t13.5 -12.5q5 -8 11.5 -31.5t14 -54.5t14.5 -65.5
t13 -64t10 -50t6 -22.5q3 -6 5 -26.5t1 -50t-4.5 -65t-11.5 -71.5t-20.5 -70.5t-29.5 -60.5q-8 -11 -20.5 -23t-26 -22.5t-26.5 -19t-23 -12.5q-6 -2 -10.5 -5.5t-9 -7.5t-10 -6.5t-14.5 -1.5q-1 1 0 5.5t0 4.5q-10 -1 -35 -8.5t-50.5 -17.5t-45.5 -20.5t-21 -17.5
q0 -8 2 -12.5t2 -10.5q0 -4 -5 -4q-4 1 -7 -5q-1 -18 15 -29.5t33 -16.5h8q5 -1 11.5 -2t12.5 -1l8 -1q48 -5 88 1t83 27q3 3 16 11t28.5 17t29 16.5t17.5 9.5q28 16 48 37.5t35 46t26 52t20 56.5z" />
    <glyph glyph-name="question" unicode="?" horiz-adv-x="501" 
d="M177 780q-25 -5 -49 -18.5t-44.5 -31.5t-35 -38t-20.5 -39q-3 -10 -10.5 -20.5t-10.5 -19.5v-3q1 -6 18.5 -10.5t39 -8.5t42 -8.5t26.5 -8.5q9 -7 16 9t16.5 38.5t22.5 43.5t34 24q9 1 26 1h27q7 -6 15.5 -10.5t16 -11t14 -16.5t9.5 -26v-1l-0.5 -5.5t-1.5 -11.5
t-1.5 -11t-1.5 -5q-24 -17 -39.5 -30.5t-27.5 -26.5t-24.5 -28t-31.5 -34q-9 0 -15.5 -5.5t-11.5 -13.5t-9 -16.5t-9 -13.5q-1 -2 -1.5 -7t-1 -11t-1 -11t-2.5 -7q-9 -7 -17 -18.5t-14 -24.5t-10.5 -25t-7.5 -19l-6 -3q-3 -19 -4.5 -34t-0.5 -29t3 -29t5 -34q2 -6 9 -8
q13 -3 29 2q15 -20 31 -25q16 -7 29 -4t27 5q6 2 12 2h13q7 0 8 3t0.5 6.5t-0.5 7.5t5 6q3 5 -3 15t-6 16q11 20 11.5 39.5t-14.5 24.5q-7 3 -7.5 9t3.5 13.5t10.5 15.5t14.5 14q19 17 28.5 32t16 29t14.5 28t25 29q9 12 16.5 19t19.5 18l17.5 15l21 18t20 18t15.5 16
q6 11 13.5 23.5t18.5 20.5l-5 50t-7 51q-6 32 -24.5 53.5t-46 34.5t-62.5 19.5t-73 8.5h-7q-5 0 -12 -0.5t-14.5 -1.5t-11.5 -2l-11 -1q-2 0 -7 3t-6 3q-8 0 -10.5 -5.5t-4.5 -13.5zM72 -61q1 -8 7 -6.5l10 2.5q3 0 4 -4q3 -11 12.5 -16t17.5 5q4 0 5.5 -8.5t4.5 -8.5l48 19
q8 9 18.5 23t18.5 45q3 11 2.5 20t-3 16.5t-4.5 14t0 13.5q22 17 14 24t-30 15q-5 -4 -8 -5t-5 -1t-5 0.5t-9 0.5q-6 7 -13 8.5t-15 0.5t-16 -3.5t-15 -2.5q-6 -4 -12 -3t-12 3l-20 -116v-21z" />
  </font>
</defs>
</svg>
